<svg id="background" xmlns="http://www.w3.org/2000/svg" xmlns:xlink="http://www.w3.org/1999/xlink" viewBox="0 0 910.22 948.24"><defs><style>.cls-1,.cls-4,.cls-5{fill:none;}.cls-2{clip-path:url(#clip-path);}.cls-3{fill:#fafafa;}.cls-3,.cls-4,.cls-5{opacity:0.45;}.cls-4,.cls-5{stroke:#fafafa;stroke-miterlimit:10;}.cls-4{stroke-width:3px;}.cls-5{stroke-width:2px;}</style><clipPath id="clip-path" transform="translate(84 71.1)"><rect class="cls-1" width="800" height="800"/></clipPath></defs><title>background-login-masterLog</title><g class="cls-2"><path class="cls-3" d="M670.15,85.86l-6.31-1.36-2-.38c0-.25,0-.5,0-.74l.2-3.85-.2-3.85c0-.24,0-.49,0-.74l2-.38,6.31-1.36a3.36,3.36,0,0,0,2.89-4l-.63-4.06a25.69,25.69,0,0,0-.89-4,3.43,3.43,0,0,0-4.15-2.72l-6.32,1-2,.38-.21-.7-1.33-3.61s-.65-1.77-1.81-4.21l1.69-1.07,5.36-3.57A3.5,3.5,0,0,0,664,41.74s-4.19-7.05-4.37-6.93a3.5,3.5,0,0,0-4.91-1l-5.54,3.25-1.73,1.07-.43-.59-2.57-2.87s-1.25-1.41-3.21-3.27l1.21-1.63,3.7-5.26a3.52,3.52,0,0,0-.56-5s-1.6-1.28-3.25-2.49l-3.29-2.43a3.55,3.55,0,0,0-5,.89l-4,5-1.22,1.61c-2.34-1.35-4-2.16-4-2.16l-3.48-1.66-.69-.25.54-2,1.55-6.22a3.46,3.46,0,0,0-2.34-4.4c.06-.21-7.88-2.22-7.88-2.22a3.4,3.4,0,0,0-4.28,2.55L606.35,12l-.55,1.93-.73-.09c-2.28-.37-3.82-.51-3.82-.51s-1.88-.17-4.59-.23l-.2-2-.78-6.42a3.34,3.34,0,0,0-3.74-3.22l-4.08.21c-2,.15-4.06.53-4.06.53A3.41,3.41,0,0,0,580.7,6l.39,6.4.18,2.06-.71.16-3.73,1s-1.82.48-4.38,1.38l-.89-1.79-3-5.69a3.49,3.49,0,0,0-4.7-1.76s-7.44,3.44-7.33,3.64A3.49,3.49,0,0,0,555,16.14L557.7,22l.89,1.83-.64.37-3.11,2.27s-1.53,1.1-3.58,2.86l-1.5-1.37-4.85-4.21a3.52,3.52,0,0,0-5,0s-1.43,1.46-2.81,3l-2.75,3a3.55,3.55,0,0,0,.38,5l4.6,4.49,1.48,1.37c-1.58,2.19-2.56,3.81-2.56,3.81l-2,3.29-.31.66-1.9-.74-6-2.17a3.47,3.47,0,0,0-4.62,1.88c-.21-.09-3,7.63-3,7.63a3.43,3.43,0,0,0,2.14,4.52l5.94,2.51,1.89.75-.18.71a29.76,29.76,0,0,0-.85,3.75s-.34,1.85-.65,4.53h-2.08l-6.46.18a3.37,3.37,0,0,0-3.52,3.44l-.2,4.09.2,4.09a3.37,3.37,0,0,0,3.52,3.44l6.46.18h2.08c.32,2.69.65,4.53.65,4.53a29.76,29.76,0,0,0,.85,3.75l.18.71-1.89.75-5.94,2.51a3.43,3.43,0,0,0-2.14,4.52s2.8,7.72,3,7.63a3.47,3.47,0,0,0,4.62,1.88l6-2.17,1.9-.74.31.66,2,3.29s1,1.61,2.56,3.81l-1.48,1.37-4.6,4.49a3.55,3.55,0,0,0-.38,5l2.75,3c1.38,1.52,2.81,3,2.81,3a3.52,3.52,0,0,0,5,0l4.85-4.21,1.5-1.37c2.05,1.76,3.58,2.86,3.58,2.86l3.11,2.27.64.37-.89,1.83L555,142.92a3.49,3.49,0,0,0,1.47,4.78c-.11.2,7.33,3.64,7.33,3.64a3.49,3.49,0,0,0,4.7-1.76l3-5.69.89-1.79c2.55.9,4.38,1.38,4.38,1.38l3.73,1,.71.16-.18,2.06-.39,6.4a3.41,3.41,0,0,0,3.11,3.85s2,.38,4.06.53l4.08.21a3.34,3.34,0,0,0,3.74-3.22l.78-6.42.2-2c2.71-.06,4.59-.23,4.59-.23s1.53-.14,3.82-.51l.73-.09.55,1.93,1.92,6.16a3.4,3.4,0,0,0,4.28,2.55s7.94-2,7.88-2.22a3.46,3.46,0,0,0,2.34-4.4l-1.55-6.22-.54-2,.69-.25,3.48-1.67s1.7-.8,4-2.16l1.22,1.61,4,5a3.55,3.55,0,0,0,5,.89l3.29-2.43c1.65-1.22,3.25-2.49,3.25-2.49a3.52,3.52,0,0,0,.56-5l-3.7-5.26-1.21-1.63c2-1.87,3.21-3.27,3.21-3.27L647,121.5l.43-.59,1.73,1.07,5.54,3.25a3.5,3.5,0,0,0,4.91-1c.18.12,4.37-6.93,4.37-6.93a3.5,3.5,0,0,0-1.28-4.86l-5.36-3.57-1.69-1.07c1.15-2.45,1.81-4.21,1.81-4.21l1.33-3.61.21-.7,2,.38,6.32,1A3.43,3.43,0,0,0,671.52,98a25.69,25.69,0,0,0,.89-4L673,89.9A3.36,3.36,0,0,0,670.15,85.86ZM646.35,109l-.8,1.28-.15.23,0,0c-.65,1-1.3,2-1.78,2.73l-.71.94h0l0,.06c-.65.84-1.27,1.62-1.76,2.34l-2.28,2.53a57.44,57.44,0,0,1-4.47,4.4l-.11.08s0,0,0,0c-1.06.93-2.23,1.89-3.48,2.79s-2.48,1.82-3.68,2.57h0l-.05,0a57.11,57.11,0,0,1-5.53,3.08l-3.07,1.48c-.82.27-1.74.64-2.74,1l-.07,0-1.32.48-.37.14c-.83.29-1.7.56-2.58.77l-3.39.86a33.65,33.65,0,0,1-3.94.69c-2,.33-3.38.46-3.38.46s-3,.27-6.72.21l-4.21-.21c-1.28-.16-2.57-.33-3.78-.5l-.69-.12h-.09c-1-.16-2-.34-2.86-.54l-3.3-.85a56.8,56.8,0,0,1-8.25-3c-1.59-.76-3.67-1.8-4.88-2.46l-1-.6v0l-.07,0c-.9-.56-1.74-1.1-2.5-1.51l-2.75-2a57.48,57.48,0,0,1-4.83-4l-.09-.1,0,0c-1-1-2.11-2-3.13-3.18s-2.06-2.28-2.93-3.39v0l-.05-.06a56.75,56.75,0,0,1-3.62-5.18L543,107.6c-.34-.79-.8-1.67-1.28-2.62l0-.07-.62-1.26-.18-.35a24.25,24.25,0,0,1-1-2.5l-1.07-2.9-.07-.18-.15-.39c-.07-.2-.12-.37-.16-.49l-.81-3.16a24.68,24.68,0,0,1-.76-3.31s-.51-2.84-.82-6.49l-.23-4.35.23-4.35c.31-3.65.82-6.49.82-6.49a24.67,24.67,0,0,1,.76-3.31l.81-3.15c0-.13.09-.29.16-.49l.15-.39.07-.18,1.07-2.9a24.23,24.23,0,0,1,1-2.49l.18-.35.62-1.26,0-.07c.48-.94.93-1.83,1.28-2.62l1.79-2.9a56.74,56.74,0,0,1,3.62-5.18l.05-.06v0c.87-1.11,1.86-2.28,2.93-3.39l.69-.75h0c.8-.86,1.63-1.67,2.43-2.41l0,0,.09-.1a57.49,57.49,0,0,1,4.83-4l2.75-2c.76-.41,1.6-.95,2.5-1.51l.07,0v0l1-.6c1.21-.66,3.29-1.7,4.88-2.46a56.82,56.82,0,0,1,8.24-3l3.3-.85c.84-.2,1.82-.37,2.86-.54h.09l.69-.12c1.21-.18,2.5-.34,3.78-.5l4.22-.21c3.75-.06,6.72.21,6.72.21s1.36.12,3.38.46a33.61,33.61,0,0,1,3.94.69l3.39.86c.88.21,1.75.48,2.58.77l.37.14,1.32.48.08,0c1,.38,1.92.74,2.74,1l3.07,1.48A57.15,57.15,0,0,1,627,30l.05,0h0c1.19.76,2.46,1.62,3.68,2.57s2.42,1.86,3.48,2.79c0,0,0,0,0,0l.11.08a57.45,57.45,0,0,1,4.47,4.4l2.28,2.53c.49.72,1.11,1.5,1.76,2.34l0,.06h0l.71.94c.48.7,1.14,1.71,1.78,2.73l0,0,.14.22.81,1.3c.48.8.91,1.59,1.31,2.36h0a55.88,55.88,0,0,1,2.63,5.82l1.18,3.19c.25.82.52,1.77.79,2.79,0,0,0,.06,0,.09l.11.37c.33,1.26.66,2.62.92,4l.4,2.61a32.3,32.3,0,0,1,.47,4.83l.19,3.41-.19,3.41a32.31,32.31,0,0,1-.47,4.83l-.4,2.6c-.26,1.37-.59,2.73-.92,4l-.11.37s0,.06,0,.09c-.27,1-.55,2-.79,2.79l-1.18,3.19A55.82,55.82,0,0,1,646.35,109Z" transform="translate(84 71.1)"/><path class="cls-3" d="M783.26,51.74c-.79-.37-1.58-.72-2.35-1,0-.55.08-1.08.12-1.56.1-1,.08-1.81.1-2.38l0-.9,0-.9c0-.57,0-1.4-.1-2.38,0-.48-.07-1-.12-1.56.76-.33,1.55-.68,2.35-1,1.85-.86,3.7-1.8,5.07-2.55s2.25-1.28,2.25-1.28l-.17-.94c-.05-.28-.11-.61-.18-1L790,33.15l-.25-1.09-.12-.5-.12-.44-.26-.92s-1-.09-2.58-.18L785.4,30l-1.4,0c-1,0-2,0-3,0s-1.74,0-2.57.08c-.18-.53-.39-1-.56-1.46-.34-.92-.7-1.66-.94-2.19l-.37-.82-.41-.8c-.26-.51-.62-1.25-1.13-2.1l-.38-.67c-.13-.23-.26-.46-.41-.69.54-.62,1.11-1.29,1.66-2,1.3-1.58,2.56-3.24,3.45-4.5s1.47-2.13,1.47-2.13l-.55-.77c-.33-.46-.81-1.05-1.28-1.65-.24-.3-.46-.6-.7-.87l-.64-.74L777,7.92l-.66.26c-.42.17-1,.4-1.74.71-1.44.6-3.32,1.45-5.15,2.36-.78.39-1.55.79-2.29,1.19-.4-.39-.78-.75-1.14-1.08-.73-.66-1.36-1.19-1.79-1.57-.22-.19-.4-.32-.52-.42l-.19-.15-.71-.56c-.44-.37-1.12-.83-1.92-1.4-.4-.27-.84-.57-1.31-.87.22-.8.45-1.64.66-2.5s.47-2,.66-2.94.36-1.83.49-2.6c.27-1.53.41-2.57.41-2.57l-.23-.13L761-4.66l-1.86-1-1.91-.87-.63-.28-.24-.1s-.72.76-1.76,1.92c-.52.58-1.11,1.26-1.72,2s-1.26,1.53-1.89,2.35-1.06,1.4-1.55,2.07L747.91,1,746.61.64l-.54-.15-.46-.11-.88-.2-.88-.2-2.34-.42L740-.66c-.15-.82-.31-1.68-.5-2.54-.43-2-.94-4-1.37-5.48s-.75-2.5-.75-2.5h-.26l-.69,0-2.08-.05-2.08.05-.69,0h-.26s-.32,1-.75,2.5-.94,3.49-1.37,5.48c-.18.86-.35,1.72-.5,2.54l-1.56.2L724.76,0l-.88.2-.88.2-.46.11L722,.64,720.7,1l-1.49.49c-.49-.67-1-1.37-1.55-2.07s-1.27-1.61-1.89-2.35-1.21-1.42-1.72-2c-1-1.16-1.76-1.92-1.76-1.92l-.24.1-.63.28-1.91.87-1.86,1-.61.32-.23.13s.14,1,.41,2.57c.13.77.3,1.65.49,2.6s.41,1.94.66,2.94.43,1.7.66,2.5c-.47.3-.91.59-1.31.87-.8.58-1.48,1-1.92,1.4l-.71.56-.19.15c-.12.1-.3.23-.52.42-.43.38-1.06.9-1.79,1.57-.36.33-.74.69-1.14,1.08-.74-.4-1.51-.8-2.29-1.19-1.82-.91-3.71-1.76-5.15-2.36-.72-.31-1.32-.54-1.74-.71l-.66-.26-.62.72-.64.74c-.23.27-.46.57-.7.87-.47.6-.95,1.19-1.28,1.65l-.55.77s.58.87,1.47,2.13,2.15,2.92,3.45,4.5c.55.68,1.12,1.34,1.66,2-.15.23-.29.46-.41.69l-.38.67c-.51.85-.87,1.58-1.13,2.1l-.41.8-.37.82c-.23.53-.59,1.27-.94,2.19-.17.45-.38.94-.56,1.46-.83,0-1.69-.06-2.57-.08s-2.05,0-3,0l-1.4,0L682,30c-1.54.08-2.58.18-2.58.18l-.26.92-.12.44-.12.5-.25,1.09-.25,1.09c-.07.35-.13.68-.18,1l-.17.94s.89.53,2.25,1.28,3.22,1.69,5.07,2.55c.79.37,1.58.72,2.35,1,0,.55-.08,1.08-.12,1.56-.09,1-.08,1.81-.1,2.38l0,.9,0,.9c0,.57,0,1.4.1,2.38,0,.48.07,1,.12,1.56-.76.33-1.55.68-2.35,1-1.85.86-3.7,1.8-5.07,2.55S678,55.56,678,55.56l.17.94c.05.28.11.61.18,1l.25,1.09.25,1.09.12.5.12.44.26.92s1,.09,2.58.18l1.24.06,1.4,0c1,0,2,0,3,0s1.74,0,2.57-.08c.18.53.39,1,.56,1.46.34.92.7,1.66.94,2.19l.37.82.41.8c.26.51.62,1.25,1.13,2.1l.38.67c.13.23.26.46.41.69-.55.62-1.11,1.29-1.66,2-1.3,1.58-2.56,3.24-3.45,4.5S687.84,79,687.84,79l.55.77c.33.46.81,1.05,1.28,1.65.24.3.46.6.7.87l.64.74.62.72.66-.26c.42-.17,1-.4,1.74-.71,1.44-.61,3.32-1.45,5.15-2.36.78-.39,1.55-.79,2.29-1.19.4.39.78.75,1.14,1.08.73.67,1.36,1.19,1.79,1.57.22.19.4.32.52.42l.19.15.71.56c.44.37,1.12.83,1.92,1.4.4.27.84.57,1.31.87-.22.8-.45,1.64-.66,2.5s-.47,2-.66,2.94-.36,1.83-.49,2.6c-.27,1.53-.41,2.57-.41,2.57L707,96l.61.32,1.86,1,1.91.87.63.28.24.1s.72-.76,1.76-1.92c.52-.58,1.11-1.26,1.72-2s1.26-1.53,1.89-2.35,1.06-1.4,1.55-2.07l1.49.49,1.29.37.54.15.46.11.88.2.88.2,2.34.42,1.56.2c.15.82.31,1.68.5,2.54.43,2,.94,4,1.37,5.48s.75,2.5.75,2.5h.26l.69,0,2.08.05,2.08-.05.69,0h.26s.32-1,.75-2.5.94-3.49,1.37-5.48c.18-.86.35-1.72.5-2.54l1.56-.2,2.34-.42.88-.2.88-.2.46-.11.54-.15,1.29-.37,1.49-.49c.49.67,1,1.37,1.55,2.07s1.27,1.61,1.89,2.35,1.21,1.42,1.72,2c1,1.16,1.76,1.92,1.76,1.92l.24-.1.63-.28,1.91-.87,1.86-1,.61-.32.23-.13s-.14-1-.41-2.57c-.13-.77-.3-1.65-.49-2.6s-.41-1.94-.66-2.94-.43-1.7-.66-2.5c.47-.3.91-.59,1.31-.87.8-.58,1.48-1,1.92-1.4l.71-.56.19-.15c.12-.1.3-.23.52-.42.43-.38,1.06-.9,1.79-1.57.36-.33.74-.69,1.14-1.08.74.4,1.51.8,2.29,1.19,1.82.91,3.71,1.76,5.15,2.36.72.31,1.32.54,1.74.71l.66.26.62-.72.64-.74c.23-.27.46-.57.7-.87.47-.6.95-1.19,1.28-1.65l.55-.77s-.58-.87-1.47-2.13-2.15-2.92-3.45-4.5c-.55-.68-1.12-1.34-1.66-2,.15-.23.29-.46.41-.69l.38-.67c.51-.85.87-1.58,1.13-2.1l.41-.8.37-.82c.23-.53.59-1.27.94-2.19.17-.45.38-.94.56-1.46.83,0,1.69.06,2.57.08s2.05,0,3,0l1.4,0,1.24-.06c1.54-.08,2.58-.18,2.58-.18l.26-.92.12-.44.12-.5.25-1.09.25-1.09c.07-.35.13-.68.18-1l.17-.94s-.89-.53-2.25-1.28S785.11,52.59,783.26,51.74ZM768.31,63c-.21.42-.5,1-.92,1.7l-.31.54c-.11.19-.22.38-.35.57L766,67.06c-.28.41-.59.83-.89,1.26l-.23.32-.25.31-.5.63a39.69,39.69,0,0,1-4,4.31c-.59.54-1.11,1-1.46,1.28-.18.15-.33.26-.42.34l-.15.12-.58.45c-.36.3-.92.67-1.57,1.14a40.61,40.61,0,0,1-5.07,3,41.06,41.06,0,0,1-5.46,2.12l-1.05.3-.44.13-.38.09-.72.16-.71.17-1.9.34a38.54,38.54,0,0,1-11.74,0l-1.9-.34-.71-.17-.72-.16-.38-.09-.44-.13-1.05-.3a41.06,41.06,0,0,1-5.46-2.12,40.62,40.62,0,0,1-5.07-3c-.65-.47-1.21-.84-1.57-1.14l-.58-.45-.15-.12c-.1-.08-.25-.18-.42-.34-.35-.31-.87-.74-1.46-1.28a39.69,39.69,0,0,1-4-4.31L704,69l-.25-.31-.23-.32c-.3-.43-.61-.85-.89-1.26l-.78-1.22c-.13-.19-.24-.38-.35-.57l-.31-.54c-.42-.69-.7-1.29-.92-1.7l-.34-.65-.3-.67c-.19-.43-.48-1-.76-1.78-.14-.37-.32-.77-.46-1.21L698,57.36c-.28-1-.59-2-.81-3l-.18-.78-.14-.78L696.7,52c0-.13,0-.25-.07-.38l0-.38-.18-1.43-.1-1.29c-.08-.8-.06-1.47-.09-1.94l0-.74,0-.74c0-.47,0-1.14.09-1.94l.1-1.29.18-1.43,0-.38c0-.13,0-.25.07-.38l.14-.77.14-.78.18-.78c.22-1,.53-2.07.81-3l.46-1.37c.14-.44.32-.83.46-1.21.28-.75.57-1.35.76-1.78l.3-.67.34-.65c.21-.42.5-1,.92-1.7l.31-.54c.11-.19.22-.38.35-.57l.78-1.22c.28-.41.59-.83.89-1.26l.23-.32.25-.31.5-.63a39.7,39.7,0,0,1,4-4.31c.59-.54,1.11-1,1.46-1.28.18-.15.33-.26.42-.34l.15-.12.58-.45c.36-.3.92-.67,1.57-1.14a40.62,40.62,0,0,1,5.07-3,41.05,41.05,0,0,1,5.46-2.12l1.05-.3.44-.13.38-.09.72-.16.71-.17,1.9-.34a38.54,38.54,0,0,1,11.74,0l1.9.34.71.17.72.16.38.09.44.13,1.05.3a41.05,41.05,0,0,1,5.46,2.12,40.61,40.61,0,0,1,5.07,3c.65.47,1.21.84,1.57,1.14l.58.45.15.12c.1.08.25.18.42.34.35.31.87.74,1.46,1.28a39.7,39.7,0,0,1,4,4.31l.5.63.25.31.23.32c.3.43.61.85.89,1.26l.78,1.22c.13.19.24.38.35.57l.31.54c.42.69.7,1.29.92,1.7l.34.65.3.67c.19.43.48,1,.76,1.78.14.37.32.77.46,1.21l.46,1.37c.28,1,.59,2,.81,3l.18.78.14.78.14.77c0,.13,0,.25.07.38l0,.38.18,1.43.1,1.29c.08.8.06,1.47.09,1.94l0,.74,0,.74c0,.47,0,1.14-.09,1.94l-.1,1.29L772,51.25l0,.38c0,.13,0,.25-.07.38l-.14.77-.14.78-.18.78c-.22,1-.53,2.07-.81,3l-.46,1.37c-.14.44-.32.83-.46,1.21-.28.75-.57,1.35-.76,1.78l-.3.67Z" transform="translate(84 71.1)"/><path class="cls-3" d="M787.57,224l-1.48-.66c0-.35.05-.68.08-1,.06-.62.05-1.14.07-1.5v-1.14c0-.36,0-.88-.07-1.5,0-.31,0-.64-.08-1l1.48-.66c1.17-.54,2.33-1.13,3.19-1.6s1.41-.8,1.41-.8l-.11-.59c0-.18-.07-.38-.11-.6l-.16-.69-.16-.69-.07-.32-.08-.28-.16-.58s-.65-.06-1.63-.11l-.78,0-.88,0c-.61,0-1.26,0-1.9,0l-1.62,0c-.11-.33-.25-.64-.35-.92-.22-.58-.44-1-.59-1.38l-.23-.52-.26-.51c-.17-.32-.39-.79-.71-1.32l-.24-.42c-.08-.14-.16-.29-.26-.43.34-.39.7-.81,1-1.24.82-1,1.61-2,2.17-2.83s.93-1.34.93-1.34l-.35-.49c-.21-.29-.51-.66-.81-1-.15-.19-.29-.38-.44-.55l-.4-.46-.39-.45-.42.16-1.1.45c-.91.38-2.09.91-3.24,1.49-.49.24-1,.5-1.44.75l-.72-.68c-.46-.42-.86-.75-1.13-1l-.33-.26-.12-.09-.45-.35c-.28-.23-.71-.52-1.21-.88l-.82-.55c.14-.5.28-1,.41-1.57s.3-1.26.42-1.85.23-1.15.31-1.63c.17-1,.26-1.62.26-1.62l-.14-.08-.39-.2-1.17-.6-1.2-.54-.4-.18-.15-.06s-.46.48-1.11,1.21c-.32.37-.7.8-1.09,1.26s-.79,1-1.19,1.48-.67.88-1,1.3l-.94-.31-.81-.23-.34-.1-.29-.07-.55-.13-.55-.13-1.48-.27-1-.13c-.09-.52-.2-1.06-.31-1.6-.27-1.26-.59-2.51-.86-3.45s-.47-1.57-.47-1.57h-.6l-1.31,0-1.31,0h-.6s-.2.63-.47,1.57-.59,2.19-.86,3.45c-.12.54-.22,1.08-.31,1.6l-1,.13-1.48.27-.55.13-.55.13-.29.07-.34.1-.81.23-.94.31c-.31-.42-.64-.87-1-1.3s-.8-1-1.19-1.48-.76-.9-1.09-1.26c-.65-.73-1.11-1.21-1.11-1.21l-.15.06-.4.18-1.2.54-1.17.6-.39.2-.14.08s.09.65.26,1.62c.08.48.19,1,.31,1.63s.26,1.22.42,1.85.27,1.07.41,1.57L740,196c-.5.36-.93.65-1.21.88l-.45.35-.12.09-.33.26c-.27.24-.67.57-1.13,1l-.72.68c-.46-.25-1-.51-1.44-.75-1.15-.57-2.33-1.11-3.24-1.49l-1.1-.45-.42-.16-.39.45-.4.46c-.15.17-.29.36-.44.55-.29.38-.6.75-.81,1l-.35.49s.36.55.93,1.34,1.35,1.84,2.17,2.83c.35.43.7.84,1,1.24-.1.14-.18.29-.26.43l-.24.42c-.32.53-.55,1-.71,1.32l-.26.51-.23.52c-.15.33-.37.8-.59,1.38-.11.29-.24.59-.35.92l-1.62,0c-.64,0-1.29,0-1.9,0l-.88,0-.78,0c-1,.05-1.63.11-1.63.11l-.16.58-.08.28-.07.32-.16.69-.16.69c0,.22-.08.43-.11.6l-.11.59s.56.34,1.41.8,2,1.06,3.19,1.6l1.48.66c0,.35-.05.68-.08,1-.06.62-.05,1.14-.07,1.5v1.14c0,.36,0,.88.07,1.5,0,.31,0,.64.08,1l-1.48.66c-1.17.54-2.33,1.13-3.19,1.6s-1.41.8-1.41.8l.11.59c0,.18.07.38.11.6l.16.69.16.69.07.32.08.28.16.58s.65.06,1.63.11l.78,0,.88,0c.61,0,1.26,0,1.9,0l1.62,0c.11.33.25.64.35.92.22.58.44,1,.59,1.38l.23.52.26.51c.17.32.39.79.71,1.32l.24.42c.08.14.16.29.26.43-.34.39-.7.81-1,1.24-.82,1-1.61,2-2.17,2.83s-.93,1.34-.93,1.34l.35.49c.21.29.51.66.81,1,.15.19.29.38.44.55l.4.46.39.45.42-.16,1.1-.45c.91-.38,2.09-.91,3.24-1.49.49-.24,1-.5,1.44-.75l.72.68c.46.42.86.75,1.13,1l.33.26.12.09.45.35c.28.23.71.52,1.21.88l.82.55c-.14.5-.28,1-.41,1.57s-.3,1.26-.42,1.85-.23,1.15-.31,1.63c-.17,1-.26,1.62-.26,1.62l.14.08.39.2,1.17.6,1.2.54.4.18.15.06s.46-.48,1.11-1.21c.32-.37.7-.8,1.09-1.26s.79-1,1.19-1.48.67-.88,1-1.3l.94.31.81.23.34.1.29.07.55.13.55.13,1.48.27,1,.13c.09.52.2,1.06.31,1.6.27,1.26.59,2.51.86,3.45s.47,1.57.47,1.57h.6l1.31,0,1.31,0h.6s.2-.63.47-1.57.59-2.19.86-3.45c.12-.54.22-1.08.31-1.6l1-.13,1.48-.27.55-.13.55-.13.29-.07.34-.1.81-.23.94-.31c.31.42.64.87,1,1.3s.8,1,1.19,1.48.76.9,1.09,1.26c.65.73,1.11,1.21,1.11,1.21l.15-.06.4-.18,1.2-.54,1.17-.6.39-.2.14-.08s-.09-.65-.26-1.62c-.08-.48-.19-1-.31-1.63s-.26-1.22-.42-1.85-.27-1.07-.41-1.57l.82-.55c.5-.36.93-.65,1.21-.88l.45-.35.12-.09.33-.26c.27-.24.67-.57,1.13-1l.72-.68c.46.25,1,.51,1.44.75,1.15.57,2.33,1.11,3.24,1.49l1.1.45.42.16.39-.45.4-.46c.15-.17.29-.36.44-.55.29-.38.6-.75.81-1l.35-.49s-.36-.55-.93-1.34S783.72,238,782.9,237c-.35-.43-.7-.84-1-1.24.1-.14.18-.29.26-.43l.24-.42c.32-.53.55-1,.71-1.32l.26-.51.23-.52c.15-.33.37-.8.59-1.38.11-.29.24-.59.35-.92l1.62,0c.64,0,1.29,0,1.9,0l.88,0,.78,0c1-.05,1.63-.11,1.63-.11l.16-.58.08-.28.07-.32.16-.69.16-.69c0-.22.08-.43.11-.6l.11-.59s-.56-.34-1.41-.8S788.73,224.58,787.57,224Zm-9.41,7.11c-.13.26-.32.64-.58,1.07l-.2.34c-.07.12-.14.24-.22.36l-.49.77-.56.79-.14.2-.16.2-.31.4A25,25,0,0,1,773,238c-.37.34-.7.61-.92.81l-.27.21-.1.07-.36.29c-.22.19-.58.42-1,.72a25.57,25.57,0,0,1-3.19,1.86,25.83,25.83,0,0,1-3.44,1.34l-.66.19-.28.08-.24.06-.45.1-.45.11-1.2.22a24.27,24.27,0,0,1-7.39,0l-1.2-.22-.45-.11-.45-.1-.24-.06-.28-.08-.66-.19a23.47,23.47,0,0,1-6.63-3.2c-.41-.3-.76-.53-1-.72l-.36-.29-.1-.07-.27-.21c-.22-.2-.55-.46-.92-.81a25,25,0,0,1-2.52-2.71l-.31-.4-.16-.2-.14-.2-.56-.79-.49-.77c-.08-.12-.15-.24-.22-.36l-.2-.34c-.26-.43-.44-.81-.58-1.07l-.21-.41-.19-.42c-.12-.27-.31-.65-.48-1.12-.09-.24-.2-.48-.29-.76l-.29-.86c-.18-.6-.37-1.25-.51-1.91l-.11-.49-.09-.49-.09-.48c0-.08,0-.16,0-.24l0-.24-.12-.9-.06-.81c-.05-.5,0-.93-.05-1.22v-.93c0-.29,0-.72.05-1.22l.06-.81.12-.9,0-.24c0-.08,0-.16,0-.24l.09-.48.09-.49.11-.49c.14-.66.33-1.3.51-1.91l.29-.86c.09-.27.2-.52.29-.76.17-.47.36-.85.48-1.12l.19-.42.21-.41c.13-.26.32-.64.58-1.07l.2-.34c.07-.12.14-.24.22-.36l.49-.77.56-.79.14-.2.16-.2.31-.4a25,25,0,0,1,2.52-2.71c.37-.34.7-.61.92-.8l.27-.21.1-.07.36-.29c.22-.19.58-.42,1-.72a23.47,23.47,0,0,1,6.63-3.2l.66-.19.28-.08L751,197l.45-.1.45-.11,1.2-.22a24.27,24.27,0,0,1,7.39,0l1.2.22.45.11.45.1.24.06.28.08.66.19a25.83,25.83,0,0,1,3.44,1.34,25.57,25.57,0,0,1,3.19,1.86c.41.3.76.53,1,.72l.36.29.1.07.27.21c.22.2.55.46.92.8a25,25,0,0,1,2.52,2.71l.31.4.16.2.14.2.56.79.49.77c.08.12.15.24.22.36l.2.34c.26.43.44.81.58,1.07l.21.41.19.42c.12.27.31.65.48,1.12.09.24.2.48.29.76l.29.86c.18.6.37,1.25.51,1.91l.11.49.09.49.09.48c0,.08,0,.16,0,.24l0,.24.12.9.06.81c.05.5,0,.93.05,1.22v.93c0,.3,0,.72-.05,1.22l-.06.81-.12.9,0,.24c0,.08,0,.16,0,.24l-.09.48-.09.49-.11.49c-.14.66-.33,1.3-.51,1.91l-.29.86c-.09.27-.2.52-.29.76-.17.47-.36.85-.48,1.12l-.19.42Z" transform="translate(84 71.1)"/><path class="cls-3" d="M523.76,5c.13-3.22-6.2-5.94-11.09-8.73a63,63,0,0,0-2.2-11.75c3.55-4.38,8.47-9.17,7.23-12s-8.14-2.6-13.76-3a63.7,63.7,0,0,0-7.09-9.64c1.3-5.48,3.65-11.95,1.27-14S489.7-53,484.46-50.93a63.14,63.14,0,0,0-10.56-5.63c-1.2-5.5-1.89-12.36-5-13.19s-7,4.77-10.83,8.91c-2-.27-4-.45-6-.53s-4.07-.06-6.07,0c-3.49-4.43-7-10.31-10.09-9.74s-4.38,7.36-6,12.75a63.15,63.15,0,0,0-11,4.77c-5.06-2.48-10.84-6.21-13.36-4.35s-.71,8.5.15,14.07a63.7,63.7,0,0,0-7.83,9c-5.63-.05-12.47-.91-14,1.88S387-25,390.15-20.33A63,63,0,0,0,387-8.79C381.93-6.4,375.4-4.19,375.27-1s6.2,5.94,11.09,8.73a63,63,0,0,0,2.2,11.75c-3.55,4.39-8.47,9.17-7.23,12s8.14,2.6,13.76,3a63.69,63.69,0,0,0,7.09,9.64c-1.3,5.48-3.65,12-1.27,14s8.42-1.2,13.67-3.27a63.14,63.14,0,0,0,10.56,5.63c1.2,5.5,1.89,12.36,5,13.19s7-4.77,10.83-8.91c2,.27,4,.45,6,.53s4.07.06,6.07,0c3.49,4.43,7,10.31,10.09,9.74s4.38-7.36,6-12.75a63.15,63.15,0,0,0,11-4.77c5.06,2.48,10.84,6.21,13.36,4.35s.71-8.5-.15-14.07a63.7,63.7,0,0,0,7.83-9c5.63.05,12.47.91,14-1.88s-3.07-7.92-6.25-12.57A63,63,0,0,0,512,12.78C517.1,10.39,523.63,8.18,523.76,5ZM447.35,56.23a54.28,54.28,0,1,1,56.4-52.07A54.28,54.28,0,0,1,447.35,56.23Z" transform="translate(84 71.1)"/><circle class="cls-4" cx="678.73" cy="150.63" r="49.54"/><circle class="cls-4" cx="533.51" cy="73.1" r="42.25"/><path class="cls-3" d="M364.94,31.57l-1.6-.71c0-.38.06-.73.08-1.06.06-.67.06-1.23.07-1.62l0-.61,0-.61c0-.39,0-1-.07-1.62,0-.33,0-.69-.08-1.06l1.6-.71c1.26-.58,2.52-1.22,3.45-1.73s1.53-.87,1.53-.87l-.11-.64c0-.19-.07-.41-.12-.65l-.17-.74-.17-.74-.08-.34-.08-.3-.18-.62s-.71-.06-1.76-.12l-.85,0-1,0c-.66,0-1.36,0-2.06,0l-1.75.05c-.12-.36-.27-.69-.38-1-.23-.63-.48-1.13-.64-1.49l-.25-.56-.28-.55c-.18-.35-.42-.85-.77-1.43l-.26-.45c-.09-.15-.18-.31-.28-.47.37-.42.75-.87,1.13-1.34.88-1.07,1.74-2.2,2.34-3.06s1-1.45,1-1.45l-.38-.53c-.23-.31-.55-.72-.87-1.12-.16-.2-.32-.41-.47-.59l-.43-.5-.42-.49-.45.17L359,2.43c-1,.41-2.26,1-3.5,1.61-.53.26-1.06.54-1.56.81l-.77-.74c-.49-.45-.93-.81-1.22-1.07l-.35-.28-.13-.1L351,2.28c-.3-.25-.76-.56-1.31-1l-.89-.59c.15-.54.3-1.12.45-1.7s.32-1.36.45-2,.24-1.24.34-1.76c.18-1,.28-1.75.28-1.75l-.15-.09-.42-.22-1.27-.65L347.22-8l-.43-.19-.16-.07s-.49.52-1.19,1.31c-.35.4-.75.86-1.17,1.36s-.85,1-1.28,1.6-.72.95-1.05,1.41l-1-.33L340-3.17l-.37-.1-.31-.07-.6-.14-.6-.14-1.59-.29-1.06-.14c-.1-.56-.21-1.14-.34-1.73-.29-1.36-.64-2.71-.93-3.73s-.51-1.7-.51-1.7h-.64l-1.42,0-1.42,0h-.64s-.22.68-.51,1.7-.64,2.37-.93,3.73c-.12.59-.24,1.17-.34,1.73l-1.06.14-1.59.29-.6.14-.6.14-.31.07-.37.1-.88.25-1,.33c-.33-.46-.69-.93-1.05-1.41s-.86-1.09-1.28-1.6-.82-1-1.17-1.36c-.7-.79-1.19-1.31-1.19-1.31l-.16.07L316.1-8l-1.3.59-1.27.65-.42.22-.15.09s.1.71.28,1.75c.09.52.2,1.12.34,1.76s.28,1.32.45,2,.29,1.15.45,1.7l-.89.59c-.54.39-1,.7-1.31,1l-.48.38-.13.1-.35.28c-.29.26-.72.62-1.22,1.07l-.77.74c-.5-.27-1-.55-1.56-.81-1.24-.62-2.52-1.2-3.5-1.61L303.1,2l-.45-.17-.42.49-.43.5c-.16.18-.31.39-.47.59-.32.41-.64.81-.87,1.12l-.38.53s.39.59,1,1.45,1.46,2,2.34,3.06c.38.46.76.91,1.13,1.34-.1.16-.19.31-.28.47l-.26.45c-.34.58-.59,1.08-.77,1.43l-.28.55-.25.56c-.16.36-.4.86-.64,1.49-.12.31-.26.64-.38,1l-1.75-.05c-.7,0-1.4,0-2.06,0l-1,0-.85,0c-1,.06-1.76.12-1.76.12l-.18.62-.08.3-.08.34-.17.74-.17.74c-.05.24-.09.46-.12.65l-.11.64s.61.36,1.53.87,2.19,1.15,3.45,1.73l1.6.71c0,.38-.06.73-.08,1.06-.06.67-.06,1.23-.07,1.62l0,.61,0,.61c0,.39,0,1,.07,1.62,0,.33,0,.69.08,1.06l-1.6.71c-1.26.58-2.52,1.22-3.45,1.73s-1.53.87-1.53.87l.11.64c0,.19.07.41.12.65l.17.74.17.74.08.34.08.3.18.62s.71.06,1.76.12l.85,0,1,0c.66,0,1.36,0,2.06,0l1.75-.05c.12.36.27.69.38,1,.23.63.48,1.13.64,1.49l.25.56.28.55c.18.35.42.85.77,1.43l.26.45c.09.15.18.31.28.47-.37.42-.75.87-1.13,1.34-.88,1.07-1.74,2.2-2.34,3.06s-1,1.45-1,1.45l.38.53c.23.31.55.72.87,1.12.16.2.32.41.47.59l.43.5.42.49.45-.17,1.18-.48c1-.41,2.26-1,3.5-1.61.53-.26,1.06-.54,1.56-.81l.77.74c.49.45.93.81,1.22,1.07l.35.28.13.1.48.38c.3.25.76.56,1.31,1l.89.59c-.15.54-.3,1.12-.45,1.7s-.32,1.36-.45,2-.24,1.24-.34,1.76c-.18,1-.28,1.75-.28,1.75l.15.09.42.22,1.27.65,1.3.59.43.19.16.07s.49-.52,1.19-1.31c.35-.4.75-.86,1.17-1.36s.85-1,1.28-1.6.72-.95,1.05-1.41l1,.33.88.25.37.1.31.07.6.14.6.14,1.59.29,1.06.14c.1.56.21,1.14.34,1.73.29,1.36.64,2.71.93,3.73s.51,1.7.51,1.7h.64l1.42,0,1.42,0h.64s.22-.68.51-1.7.64-2.37.93-3.73c.12-.59.24-1.17.34-1.73l1.06-.14,1.59-.29.6-.14.6-.14.31-.07.37-.1.88-.25,1-.33c.33.46.69.93,1.05,1.41s.86,1.09,1.28,1.6.82,1,1.17,1.36c.7.79,1.19,1.31,1.19,1.31l.16-.07.43-.19,1.3-.59,1.27-.65.42-.22.15-.09s-.1-.71-.28-1.75c-.09-.52-.2-1.12-.34-1.76s-.28-1.32-.45-2-.29-1.15-.45-1.7l.89-.59c.54-.39,1-.7,1.31-1l.48-.38.13-.1.35-.28c.29-.26.72-.62,1.22-1.07l.77-.74c.5.27,1,.55,1.56.81,1.24.62,2.52,1.2,3.5,1.61l1.18.48.45.17.42-.49.43-.5c.16-.18.31-.39.47-.59.32-.41.64-.81.87-1.12l.38-.53s-.39-.59-1-1.45-1.46-2-2.34-3.06c-.38-.46-.76-.91-1.13-1.34.1-.16.19-.31.28-.47l.26-.45c.34-.58.59-1.08.77-1.43l.28-.55.25-.56c.16-.36.4-.86.64-1.49.12-.31.26-.64.38-1l1.75.05c.7,0,1.4,0,2.06,0l1,0,.85,0c1-.06,1.76-.12,1.76-.12l.18-.62.08-.3.08-.34.17-.74.17-.74c0-.24.09-.46.12-.65l.11-.64s-.61-.36-1.53-.87S366.2,32.15,364.94,31.57Zm-33.28,15.8a19.81,19.81,0,1,1,19.81-19.81A19.81,19.81,0,0,1,331.66,47.37Z" transform="translate(84 71.1)"/><path class="cls-3" d="M821.19,136.9l-1.61-.72c0-.38.06-.74.08-1.07.07-.67.06-1.24.07-1.63l0-.62,0-.62c0-.39,0-1-.07-1.63,0-.33-.05-.69-.08-1.07l1.61-.72c1.27-.59,2.54-1.24,3.48-1.75s1.54-.88,1.54-.88l-.12-.64c0-.19-.07-.42-.12-.66l-.17-.75-.17-.75-.08-.34-.09-.3-.18-.63s-.71-.06-1.77-.12l-.85,0-1,0c-.67,0-1.37,0-2.08,0l-1.77.05c-.12-.36-.27-.69-.39-1-.24-.63-.48-1.14-.64-1.5l-.26-.57-.28-.55c-.18-.35-.43-.86-.78-1.44l-.26-.46c-.09-.15-.18-.31-.28-.47.37-.43.76-.88,1.14-1.35.89-1.09,1.76-2.23,2.37-3.09s1-1.46,1-1.46l-.38-.53c-.23-.32-.56-.72-.88-1.13-.16-.2-.32-.41-.48-.6l-.44-.51-.43-.49-.46.18-1.2.49c-1,.42-2.28,1-3.54,1.62-.53.26-1.07.54-1.57.82l-.78-.74c-.5-.46-.94-.82-1.23-1.08l-.36-.29-.13-.1-.49-.38c-.3-.25-.77-.57-1.32-1l-.9-.59c.15-.55.31-1.13.45-1.72s.32-1.37.46-2,.25-1.26.34-1.78c.18-1.05.28-1.77.28-1.77l-.16-.09-.42-.22-1.28-.65-1.31-.59-.43-.19-.17-.07s-.5.52-1.21,1.32c-.35.4-.76.87-1.18,1.38s-.86,1-1.3,1.61-.73,1-1.06,1.42l-1-.33-.89-.25-.37-.11-.32-.08-.6-.14-.6-.14-1.61-.29-1.07-.14c-.1-.56-.22-1.15-.34-1.74-.29-1.37-.65-2.74-.94-3.77s-.51-1.71-.51-1.71H789l-1.43,0-1.43,0h-.65s-.22.69-.51,1.71-.65,2.39-.94,3.77c-.13.59-.24,1.18-.34,1.74l-1.07.14-1.61.29-.6.14-.6.14-.32.08-.37.11-.89.25-1,.33c-.34-.46-.69-.94-1.06-1.42s-.87-1.11-1.3-1.61-.83-1-1.18-1.38c-.71-.8-1.21-1.32-1.21-1.32l-.17.07-.43.19-1.31.59-1.28.65-.42.22-.16.09s.1.71.28,1.77c.09.53.21,1.14.34,1.78s.28,1.33.46,2,.3,1.17.45,1.72l-.9.59c-.55.4-1,.71-1.32,1l-.49.38-.13.1-.36.29c-.3.26-.73.62-1.23,1.08l-.78.74c-.51-.27-1-.55-1.57-.82-1.25-.63-2.55-1.21-3.54-1.62l-1.2-.49-.46-.18-.43.49-.44.51c-.16.18-.32.39-.48.6-.32.41-.65.82-.88,1.13l-.38.53s.4.6,1,1.46,1.48,2,2.37,3.09c.38.47.77.92,1.14,1.35-.1.16-.2.32-.28.47l-.26.46c-.35.58-.6,1.09-.78,1.44l-.28.55-.26.57c-.16.36-.41.87-.64,1.5-.12.31-.26.64-.39,1l-1.77-.05c-.7,0-1.41,0-2.08,0l-1,0-.85,0c-1.06.06-1.77.12-1.77.12l-.18.63-.09.3-.08.34-.17.75-.17.75c-.05.24-.09.47-.12.66l-.12.64s.61.37,1.54.88,2.21,1.16,3.48,1.75l1.61.72c0,.38-.06.74-.08,1.07-.07.67-.06,1.24-.07,1.63l0,.62,0,.62c0,.39,0,1,.07,1.63,0,.33.05.69.08,1.07l-1.61.72c-1.27.59-2.54,1.24-3.48,1.75s-1.54.88-1.54.88l.12.64c0,.19.07.42.12.66l.17.75.17.75.08.34.09.3.18.63s.71.06,1.77.12l.85,0,1,0c.67,0,1.37,0,2.08,0l1.77-.05c.12.36.27.69.39,1,.24.63.48,1.14.64,1.5l.26.57.28.55c.18.35.43.86.78,1.44l.26.46c.09.15.18.31.28.47-.37.43-.76.88-1.14,1.35-.89,1.09-1.76,2.23-2.37,3.09s-1,1.46-1,1.46l.38.53c.23.32.56.72.88,1.13.16.2.32.41.48.6l.44.51.43.49.46-.18,1.2-.49c1-.42,2.28-1,3.54-1.62.53-.26,1.07-.54,1.57-.82l.78.74c.5.46.94.82,1.23,1.08l.36.29.13.1.49.38c.3.25.77.57,1.32,1l.9.59c-.15.55-.31,1.13-.45,1.72s-.32,1.37-.46,2-.25,1.26-.34,1.78c-.18,1.05-.28,1.77-.28,1.77l.16.09.42.22,1.28.65,1.31.59.43.19.17.07s.5-.52,1.21-1.32c.35-.4.76-.87,1.18-1.38s.86-1,1.3-1.61.73-1,1.06-1.42l1,.33.89.25.37.11.32.08.6.14.6.14,1.61.29,1.07.14c.1.56.22,1.15.34,1.74.29,1.37.65,2.74.94,3.77s.51,1.71.51,1.71h.65l1.43,0,1.43,0h.65s.22-.69.51-1.71.65-2.39.94-3.77c.13-.59.24-1.18.34-1.74l1.07-.14,1.61-.29.6-.14.6-.14.32-.08.37-.11.89-.25,1-.33c.34.46.69.94,1.06,1.42s.87,1.11,1.3,1.61.83,1,1.18,1.38c.71.8,1.21,1.32,1.21,1.32l.17-.07.43-.19,1.31-.59,1.28-.65.42-.22.16-.09s-.1-.71-.28-1.77c-.09-.53-.21-1.14-.34-1.78s-.28-1.33-.46-2-.3-1.17-.45-1.72l.9-.59c.55-.4,1-.71,1.32-1l.49-.38.13-.1.36-.29c.3-.26.73-.62,1.23-1.08l.78-.74c.51.27,1,.55,1.57.82,1.25.63,2.55,1.21,3.54,1.62l1.2.49.46.18.43-.49.44-.51c.16-.19.32-.39.48-.6.32-.41.65-.82.88-1.13l.38-.53s-.4-.6-1-1.46-1.48-2-2.37-3.09c-.38-.47-.77-.92-1.14-1.35.1-.16.2-.32.28-.47l.26-.46c.35-.58.6-1.09.78-1.44l.28-.55.26-.57c.16-.36.41-.87.64-1.5.12-.31.26-.64.39-1l1.77.05c.7,0,1.41,0,2.08,0l1,0,.85,0c1.06-.06,1.77-.12,1.77-.12l.18-.63.09-.3.08-.34.17-.75.17-.75c.05-.24.09-.47.12-.66l.12-.64s-.61-.37-1.54-.88S822.47,137.49,821.19,136.9Zm-33.62,16a20,20,0,1,1,20-20A20,20,0,0,1,787.57,152.87Z" transform="translate(84 71.1)"/><path class="cls-3" d="M745.27,146.67c.06-1.46-2.81-2.69-5-4a28.53,28.53,0,0,0-1-5.32c1.61-2,3.84-4.15,3.27-5.45s-3.69-1.17-6.23-1.35a28.84,28.84,0,0,0-3.21-4.36c.59-2.48,1.65-5.41.58-6.35s-3.81.55-6.19,1.48a28.58,28.58,0,0,0-4.78-2.55c-.54-2.49-.86-5.59-2.25-6s-3.17,2.16-4.9,4c-.9-.12-1.81-.2-2.74-.24s-1.84,0-2.75,0c-1.58-2-3.19-4.67-4.57-4.41s-2,3.33-2.72,5.77a28.6,28.6,0,0,0-5,2.16c-2.29-1.12-4.91-2.81-6.05-2s-.32,3.85.07,6.37a28.84,28.84,0,0,0-3.55,4.1c-2.55,0-5.64-.41-6.32.85s1.39,3.58,2.83,5.69a28.53,28.53,0,0,0-1.42,5.23c-2.31,1.08-5.26,2.08-5.32,3.54s2.81,2.69,5,4a28.53,28.53,0,0,0,1,5.32c-1.61,2-3.84,4.15-3.27,5.45s3.69,1.17,6.23,1.35a28.83,28.83,0,0,0,3.21,4.36c-.59,2.48-1.65,5.41-.58,6.34s3.81-.55,6.19-1.48a28.59,28.59,0,0,0,4.78,2.55c.54,2.49.86,5.59,2.25,6s3.17-2.16,4.9-4c.9.12,1.81.2,2.74.24s1.84,0,2.75,0c1.58,2,3.19,4.67,4.57,4.41s2-3.33,2.72-5.77a28.59,28.59,0,0,0,5-2.16c2.29,1.12,4.91,2.81,6.05,2s.32-3.85-.07-6.37A28.84,28.84,0,0,0,735,162c2.55,0,5.64.41,6.32-.85s-1.39-3.58-2.83-5.69a28.53,28.53,0,0,0,1.42-5.23C742.26,149.13,745.21,148.12,745.27,146.67Zm-33.62,11.49a12.83,12.83,0,1,1,12.83-12.83A12.83,12.83,0,0,1,711.66,158.16Z" transform="translate(84 71.1)"/><path class="cls-3" d="M292.4,761.17l-1.28-.57c0-.3,0-.59.07-.85.05-.54,0-1,.06-1.3v-1c0-.31,0-.76-.06-1.3,0-.26,0-.55-.07-.85l1.28-.57c1-.47,2-1,2.77-1.39s1.23-.7,1.23-.7l-.09-.51c0-.15-.06-.33-.1-.52l-.14-.59-.14-.59-.06-.27-.07-.24-.14-.5s-.57-.05-1.41-.1l-.68,0-.76,0h-1.65l-1.4,0c-.1-.29-.21-.55-.31-.8-.19-.5-.38-.91-.51-1.19l-.2-.45-.22-.44c-.14-.28-.34-.68-.62-1.14l-.21-.36c-.07-.12-.14-.25-.23-.37.3-.34.6-.7.91-1.07.71-.86,1.4-1.77,1.88-2.45s.8-1.16.8-1.16l-.3-.42c-.18-.25-.44-.57-.7-.9-.13-.16-.25-.33-.38-.48l-.35-.4-.34-.39-.36.14-.95.39c-.79.33-1.81.79-2.81,1.29-.42.21-.85.43-1.25.65l-.62-.59c-.4-.36-.74-.65-1-.86l-.28-.23-.1-.08-.39-.3c-.24-.2-.61-.45-1.05-.77l-.71-.47c.12-.44.24-.9.36-1.36s.26-1.09.36-1.61.2-1,.27-1.42c.15-.84.23-1.4.23-1.4l-.12-.07-.33-.17-1-.52-1-.47-.34-.15-.13-.05s-.39.41-1,1c-.28.32-.6.69-.94,1.09s-.69.83-1,1.28-.58.76-.84,1.13l-.81-.27-.71-.2-.29-.08-.25-.06-.48-.11-.48-.11-1.28-.23-.85-.11c-.08-.45-.17-.92-.27-1.39-.23-1.09-.51-2.17-.75-3s-.41-1.36-.41-1.36h-.52l-1.14,0-1.14,0H264s-.18.55-.41,1.36-.51,1.9-.75,3c-.1.47-.19.94-.27,1.39l-.85.11-1.28.23L260,733l-.48.11-.25.06-.29.08-.71.2-.81.27c-.27-.37-.55-.75-.84-1.13s-.69-.88-1-1.28-.66-.78-.94-1.09c-.56-.63-1-1-1-1l-.13.05-.34.15-1,.47-1,.52-.33.17-.12.07s.08.57.23,1.4c.07.42.16.9.27,1.42s.23,1.06.36,1.61.24.93.36,1.36l-.71.47c-.44.31-.81.56-1.05.77l-.39.3-.1.08-.28.23c-.23.21-.58.49-1,.86l-.62.59c-.4-.22-.82-.44-1.25-.65-1-.5-2-1-2.81-1.29l-.95-.39-.36-.14-.34.39-.35.4c-.13.15-.25.31-.38.48-.25.33-.52.65-.7.9l-.3.42s.31.48.8,1.16,1.17,1.59,1.88,2.45c.3.37.61.73.91,1.07-.08.13-.16.25-.23.37l-.21.36c-.28.46-.47.87-.62,1.14l-.22.44-.2.45c-.13.29-.32.69-.51,1.19-.09.25-.21.51-.31.8l-1.4,0h-1.65l-.76,0-.68,0c-.84,0-1.41.1-1.41.1l-.14.5-.07.24-.06.27-.14.59-.14.59c0,.19-.07.37-.1.52l-.09.51s.49.29,1.23.7,1.76.92,2.77,1.39l1.28.57c0,.3,0,.59-.07.85-.05.54,0,1-.06,1.3v1c0,.31,0,.76.06,1.3,0,.26,0,.55.07.85l-1.28.57c-1,.47-2,1-2.77,1.39s-1.23.7-1.23.7l.09.51c0,.15.06.33.1.52l.14.59.14.59.06.27.07.24.14.5s.57.05,1.41.1l.68,0,.76,0h1.65l1.4,0c.1.29.21.55.31.8.19.5.38.91.51,1.19l.2.45.22.44c.14.28.34.68.62,1.14l.21.36c.07.12.14.25.23.37-.3.34-.6.7-.91,1.07-.71.86-1.4,1.77-1.88,2.45s-.8,1.16-.8,1.16l.3.42c.18.25.44.57.7.9.13.16.25.33.38.48l.35.4.34.39.36-.14.95-.39c.79-.33,1.81-.79,2.81-1.29.42-.21.85-.43,1.25-.65l.62.59c.4.36.74.65,1,.86l.28.23.1.08.39.3c.24.2.61.45,1.05.77l.71.47c-.12.44-.24.9-.36,1.36s-.26,1.09-.36,1.61-.2,1-.27,1.42c-.15.84-.23,1.4-.23,1.4l.12.07.33.17,1,.52,1,.47.34.15.13.05s.39-.41,1-1c.28-.32.6-.69.94-1.09s.69-.83,1-1.28.58-.76.84-1.13l.81.27.71.2.29.08.25.06.48.11.48.11,1.28.23.85.11c.08.45.17.92.27,1.39.23,1.09.51,2.17.75,3s.41,1.36.41,1.36h.52l1.14,0,1.14,0h.52s.18-.55.41-1.36.51-1.9.75-3c.1-.47.19-.94.27-1.39l.85-.11,1.28-.23.48-.11.48-.11.25-.06.29-.08.71-.2.81-.27c.27.37.55.75.84,1.13s.69.88,1,1.28.66.78.94,1.09c.56.63,1,1,1,1l.13-.05.34-.15,1-.47,1-.52.33-.17.12-.07s-.08-.57-.23-1.4c-.07-.42-.16-.9-.27-1.42s-.23-1.06-.36-1.61-.24-.93-.36-1.36l.71-.47c.44-.31.81-.56,1.05-.77l.39-.3.1-.08.28-.23c.24-.21.58-.49,1-.86l.62-.59c.4.22.82.44,1.25.65,1,.5,2,1,2.81,1.29l.95.39.36.14.34-.39.35-.4c.13-.15.25-.31.38-.48.25-.33.52-.65.7-.9l.3-.42s-.31-.48-.8-1.16-1.17-1.59-1.88-2.45c-.3-.37-.61-.73-.91-1.07.08-.12.16-.25.23-.37l.21-.36c.28-.46.47-.87.62-1.14l.22-.44.2-.45c.13-.29.32-.69.51-1.19.09-.25.21-.51.31-.8l1.4,0h1.65l.76,0,.68,0c.84,0,1.41-.1,1.41-.1l.14-.5.07-.24.06-.27.14-.59.14-.59c0-.19.07-.37.1-.52l.09-.51s-.49-.29-1.23-.7S293.42,761.64,292.4,761.17Zm-8.16,6.16c-.12.23-.27.56-.5.93l-.17.3c-.06.1-.12.21-.19.31l-.43.66-.49.69-.12.18-.14.17-.27.34a21.67,21.67,0,0,1-2.19,2.35c-.32.3-.61.53-.8.7l-.23.19-.08.06-.32.25c-.2.17-.5.37-.85.62a20.35,20.35,0,0,1-5.75,2.77l-.57.16-.24.07-.21,0-.39.09-.39.09-1,.19a21,21,0,0,1-6.41,0l-1-.19-.39-.09-.39-.09-.21,0-.24-.07-.57-.16a20.35,20.35,0,0,1-5.75-2.77c-.35-.26-.66-.46-.85-.62l-.32-.25-.08-.06-.23-.19c-.19-.17-.47-.4-.8-.7a21.67,21.67,0,0,1-2.19-2.35l-.27-.34-.14-.17-.12-.18-.49-.69-.43-.66c-.07-.1-.13-.21-.19-.31l-.17-.3c-.23-.37-.38-.7-.5-.93l-.18-.36-.16-.37c-.1-.23-.26-.56-.42-1-.08-.2-.17-.42-.25-.66l-.25-.75c-.15-.52-.32-1.08-.44-1.65l-.1-.42-.08-.43-.08-.42c0-.07,0-.14,0-.21l0-.21-.1-.78-.05-.71c0-.44,0-.8,0-1.06v-.81c0-.26,0-.62,0-1.06l.05-.71.1-.78,0-.21c0-.07,0-.14,0-.21l.08-.42.08-.43.1-.42c.12-.57.29-1.13.44-1.65l.25-.75c.08-.24.18-.45.25-.66.15-.41.31-.74.42-1l.16-.37.18-.36c.12-.23.27-.56.5-.93l.17-.3c.06-.1.12-.21.19-.31l.43-.66.49-.69.12-.18.14-.17.27-.34a21.67,21.67,0,0,1,2.19-2.35c.32-.3.61-.53.8-.7l.23-.19.08-.06.32-.25c.19-.17.5-.37.85-.62a20.35,20.35,0,0,1,5.75-2.77l.57-.16.24-.07.21,0,.39-.09.39-.09,1-.19a21,21,0,0,1,6.41,0l1,.19.39.09.39.09.21,0,.24.07.57.16a20.35,20.35,0,0,1,5.75,2.77c.35.26.66.46.85.62l.32.25.08.06.23.19c.19.17.47.4.8.7a21.67,21.67,0,0,1,2.19,2.35l.27.34.14.17.12.18.49.69.43.66c.07.1.13.21.19.31l.17.3c.23.37.38.7.5.93l.18.36.16.37c.1.23.26.56.42,1,.08.2.17.42.25.66l.25.75c.15.52.32,1.08.44,1.65l.1.42.08.43.08.42c0,.07,0,.14,0,.21l0,.21.1.78.05.71c0,.44,0,.8,0,1.06v.81c0,.26,0,.62,0,1.06l-.05.71-.1.78,0,.21c0,.07,0,.14,0,.21l-.08.42-.08.43-.1.42c-.12.57-.29,1.13-.44,1.65l-.25.75c-.08.24-.18.45-.25.66-.15.41-.31.74-.42,1l-.16.37Z" transform="translate(84 71.1)"/><path class="cls-3" d="M52.08,759.32c0-.44.07-.86.1-1.26.07-1.12.06-2,.09-2.7l0-1,0-1c0-.65,0-1.58-.09-2.7,0-.4-.06-.82-.1-1.26.7-.47,1.51-1,2.31-1.61,2.24-1.63,4.41-3.48,4.41-3.48l-.13-1-.38-2.13c-.13-.78-.28-1.55-.42-2.12l-.22-1L56,737.51c-1-.33-2.35-.74-3.7-1.09-.95-.25-1.89-.49-2.71-.68-.12-.42-.25-.83-.38-1.21-.36-1.06-.65-1.95-.87-2.56l-.38-1-.38-1c-.22-.61-.61-1.46-1.07-2.48-.16-.36-.34-.75-.53-1.14.49-.7,1-1.5,1.54-2.33.75-1.17,1.48-2.38,2-3.31l.85-1.54-.49-.85c-.3-.51-.67-1.2-1.11-1.86l-1.17-1.82c-.31-.5-.55-.82-.55-.82s-2.86.11-5.6.4c-1,.11-1.95.24-2.79.36l-.78-1c-1.43-1.72-2.43-2.83-2.43-2.83l-.71-.74c-.46-.46-1.07-1.17-1.89-1.93l-.91-.87c.2-.83.42-1.78.61-2.74.55-2.7.92-5.55.92-5.55l-.77-.61L31,697.08c-.62-.48-1.27-.92-1.75-1.27l-.8-.57s-.65.26-1.61.71-2.24,1.05-3.47,1.69l-1.79.95-.67.38-1.1-.63-1.32-.76-1-.54-.91-.47s-.33-.18-.92-.46L13.14,695,12,694.51c-.11-.84-.26-1.8-.42-2.77-.23-1.39-.51-2.75-.75-3.78l-.41-1.72-.93-.31c-.56-.2-1.32-.39-2.08-.61s-1.51-.45-2.09-.57l-1-.22-1.25,1.25c-.74.75-1.7,1.75-2.62,2.82-.65.74-1.27,1.48-1.81,2.14l-1.25-.21-2.68-.34c-.32,0-.58-.06-.75-.08l-.27,0-1-.08c-.65,0-1.58-.14-2.7-.15l-1.26,0c-.41-.75-.89-1.61-1.39-2.44-1.42-2.37-3.06-4.72-3.06-4.72H-16l-.71.05-2.16.16c-.78,0-1.56.17-2.15.24l-1,.12-.72,1.6c-.42,1-.95,2.29-1.43,3.59-.34.93-.66,1.83-.93,2.63-.43.08-.85.17-1.23.27-1.09.26-2,.44-2.63.64l-1,.28-1,.28c-.63.16-1.51.49-2.57.84-.38.12-.78.26-1.19.42-.65-.54-1.4-1.14-2.17-1.75-1.1-.85-2.24-1.71-3.11-2.3l-1.46-1-.9.41c-.54.24-1.26.57-2,.94l-1.93,1c-.26.13-.48.26-.63.34l-.23.13s-.17,2.85-.12,5.61c0,1,.06,2,.1,2.81l-1.06.68c-.93.63-1.67,1.18-2.21,1.55s-.83.61-.83.61l-.81.63c-.51.41-1.26,1-2.09,1.71l-1,.83c-.81-.28-1.74-.59-2.67-.86-1.33-.39-2.68-.76-3.72-1s-1.73-.41-1.73-.41L-65.27,706l-2.06,2.37s.2.67.56,1.68.84,2.33,1.36,3.61c.35.9.74,1.79,1.1,2.57l-.73,1c-.66.9-1.16,1.69-1.51,2.24l-.55.86-.14.23c-.1.15-.23.36-.39.65L-69,723.58l-.58,1.12c-.85,0-1.82.09-2.8.16-1.41.1-2.77.27-3.83.4l-1.75.24-.4.9-.8,2c-.29.73-.58,1.47-.76,2l-.32.93,1.12,1.36c.67.8,1.61,1.86,2.57,2.88.67.72,1.35,1.41,2,2-.12.42-.23.84-.31,1.22-.25,1.09-.47,2-.6,2.63l-.18,1-.18,1c-.05.32-.13.71-.2,1.16l-.19,1.51c-.06.39-.11.82-.16,1.26l-.7.3-1.83.86c-1.25.6-2.5,1.25-3.44,1.75l-1.12.62-.42.24-.08,3.14.08,3.14.42.24,1.12.62c.94.51,2.19,1.15,3.44,1.76l1.83.86.7.3c0,.44.1.86.16,1.26l.19,1.51c.07.45.15.84.2,1.16l.18,1,.18,1c.13.64.35,1.54.6,2.63.09.39.2.8.31,1.22-.6.6-1.28,1.29-2,2-1,1-1.91,2.07-2.57,2.88l-1.12,1.36.32.93c.18.56.46,1.3.76,2l.8,2,.4.9,1.75.24c1.06.13,2.42.3,3.83.4,1,.07,2,.12,2.8.16l.58,1.12,1.35,2.34c.16.28.29.5.39.65l.14.23.55.86c.35.55.84,1.34,1.51,2.24l.73,1c-.35.78-.74,1.67-1.1,2.57-.52,1.29-1,2.61-1.36,3.61s-.56,1.68-.56,1.68l2.06,2.37,2.17,2.28s.69-.15,1.73-.41,2.39-.62,3.72-1c.93-.27,1.86-.58,2.67-.86l1,.83c.83.75,1.59,1.3,2.09,1.71l.81.63s.29.24.83.61,1.28.93,2.21,1.55l1.06.68c0,.85-.09,1.82-.1,2.81,0,2.76.12,5.61.12,5.61l.23.13c.15.09.36.21.63.34l1.93,1c.7.37,1.41.69,2,.93l.9.41,1.46-1c.86-.59,2-1.45,3.11-2.3.78-.61,1.52-1.21,2.17-1.75.41.16.81.3,1.19.42,1.06.35,1.93.68,2.57.84l1,.28,1,.28c.62.2,1.54.37,2.63.64.38.1.8.19,1.23.27.27.81.59,1.71.93,2.63.48,1.3,1,2.63,1.43,3.59l.72,1.6,1,.12c.59.07,1.36.19,2.15.24l2.16.16.71.05h.27s1.64-2.35,3.06-4.72c.5-.83,1-1.68,1.39-2.44l1.26,0c1.12,0,2-.11,2.7-.15l1-.08.27,0c.17,0,.43,0,.75-.08l2.68-.34,1.25-.21c.54.66,1.16,1.4,1.81,2.14.92,1.07,1.88,2.07,2.62,2.82l1.25,1.25,1-.22c.58-.13,1.33-.36,2.09-.57s1.52-.42,2.08-.61l.93-.31.41-1.72c.23-1,.52-2.39.75-3.78.16-1,.31-1.93.42-2.77l1.17-.48,2.46-1.11c.59-.28.92-.46.92-.46l.91-.47,1-.54,1.32-.76,1.1-.63.67.38,1.79.95c1.23.63,2.5,1.24,3.47,1.69s1.61.71,1.61.71l.8-.57c.48-.35,1.13-.79,1.75-1.27l1.7-1.34.77-.61s-.37-2.85-.92-5.55c-.19-1-.41-1.91-.61-2.74l.91-.87c.82-.76,1.43-1.47,1.89-1.93l.71-.74s1-1.11,2.43-2.83l.78-1c.84.12,1.81.26,2.79.36,2.74.29,5.6.4,5.6.4s.23-.32.55-.82l1.17-1.82c.44-.65.81-1.35,1.11-1.86l.49-.85-.85-1.54c-.53-.92-1.26-2.14-2-3.31-.53-.83-1.06-1.63-1.54-2.33.19-.4.37-.78.53-1.14.47-1,.85-1.87,1.07-2.48l.38-1,.38-1c.23-.61.51-1.5.87-2.56.13-.37.25-.78.38-1.21.82-.19,1.76-.42,2.71-.68,1.35-.36,2.71-.76,3.7-1.09l1.67-.57.22-1c.14-.57.29-1.35.42-2.12l.38-2.13.13-1s-2.17-1.85-4.41-3.48C53.59,760.34,52.79,759.79,52.08,759.32ZM32.17,722.48c.34.49.71,1,1,1.49l1,1.59a53.67,53.67,0,0,1,3.27,6.12c.39.86.72,1.58.91,2.1l.32.81.32.81c.19.52.43,1.27.74,2.16s.57,2,.91,3.1l.41,1.78.21.91.16.93a55.08,55.08,0,0,1,.84,6.89c0,.47,0,.89.05,1.28H25.25a37.75,37.75,0,0,0-9.76-23.53l12.06-12.06,0,0,.6.63s.84.94,2.06,2.4C30.79,720.66,31.51,721.5,32.17,722.48Zm-77.95,31.85A33.17,33.17,0,0,1-12.6,721.16a33.17,33.17,0,0,1,33.17,33.17A33.17,33.17,0,0,1-12.6,787.5,33.17,33.17,0,0,1-45.77,754.33Zm37.72-54.49.87.06.23,0c.15,0,.36,0,.64.06l2.27.29c.93.16,2,.34,3.18.58s2.39.53,3.59.9,2.41.75,3.53,1.12,2.13.82,3,1.18l2.08.94.77.39.77.4.89.45,1.12.64a54.74,54.74,0,0,1,5.8,3.82c1,.78,2,1.55,2.88,2.35.46.38.89.77,1.29,1.15l-12,12a37.75,37.75,0,0,0-23.53-9.76V699.7h.37C-9.4,699.71-8.61,699.8-8.06,699.84Zm-39.59,12.85c.7-.64,1.35-1.1,1.78-1.45l.68-.54s.24-.2.7-.51,1.09-.79,1.87-1.32l1.29-.82.7-.45.76-.43,1.58-.91,1.68-.86c.56-.3,1.13-.55,1.7-.81s1.12-.52,1.67-.74c1.11-.42,2.12-.87,3-1.14s1.64-.58,2.17-.71l.83-.24.83-.24c.53-.17,1.3-.31,2.22-.54s2-.39,3.17-.61c.58-.12,1.19-.16,1.81-.25s1.24-.18,1.87-.21l1.88-.14c.31,0,.62,0,.93,0v16.76A37.75,37.75,0,0,0-38,726.25l-11.7-11.7c.31-.3.61-.6.92-.86ZM-66.46,747.4l.16-1.28c.06-.38.13-.71.17-1l.15-.85.15-.85.51-2.23c.2-.92.55-2,.86-3.12l.59-1.73.3-.89.35-.88a57,57,0,0,1,2.9-6.3l1.14-2c.13-.24.25-.43.33-.55l.12-.19.47-.73c.3-.47.71-1.14,1.28-1.9l.88-1.25,1.05-1.34c.36-.47.74-.95,1.16-1.41l1.24-1.42.27-.28,11.69,11.69a37.75,37.75,0,0,0-9.76,23.53H-66.87A47.09,47.09,0,0,1-66.46,747.4ZM-57,785.74c-.57-.76-1-1.43-1.28-1.9l-.47-.73-.12-.19c-.08-.12-.2-.31-.33-.55l-1.14-2a57,57,0,0,1-2.9-6.3l-.35-.88-.3-.89-.59-1.73c-.31-1.14-.65-2.19-.86-3.12l-.51-2.23-.15-.85-.15-.85c0-.27-.12-.6-.17-1l-.16-1.28a47.07,47.07,0,0,1-.4-5h16.41a37.75,37.75,0,0,0,9.76,23.53l-11.69,11.69-.27-.28-1.24-1.42c-.42-.46-.8-.94-1.16-1.41L-56.1,787Zm39.69,23c-.63,0-1.26-.14-1.87-.21s-1.23-.13-1.81-.25c-1.16-.22-2.26-.37-3.17-.61s-1.7-.36-2.22-.54l-.83-.24-.83-.24c-.54-.13-1.27-.42-2.17-.71s-1.92-.73-3-1.14c-.55-.21-1.1-.49-1.67-.74s-1.15-.51-1.7-.81l-1.68-.86-1.58-.91-.76-.43-.7-.45-1.29-.82c-.78-.53-1.42-1-1.87-1.32s-.7-.51-.7-.51l-.68-.54c-.43-.35-1.07-.81-1.78-1.45l-1.16-1c-.31-.26-.61-.56-.92-.86l11.7-11.7a37.75,37.75,0,0,0,23.53,9.76v16.76c-.31,0-.62,0-.93,0Zm38-10.8a54.76,54.76,0,0,1-5.8,3.82l-1.12.64-.89.45-.77.4-.77.39-2.08.94c-.87.36-1.9.77-3,1.18s-2.31.81-3.53,1.12-2.44.63-3.59.9-2.25.42-3.18.58l-2.27.29c-.27,0-.49.06-.64.06l-.23,0-.87.06c-.55,0-1.34.13-2.29.13h-.37V792.18a37.75,37.75,0,0,0,23.53-9.76l12,12c-.4.38-.83.77-1.29,1.15C22.69,796.42,21.69,797.18,20.69,798Zm20.79-33.58-.16.93-.21.91L40.7,768c-.34,1.13-.6,2.21-.91,3.1s-.55,1.65-.74,2.16l-.32.81-.32.81c-.19.52-.51,1.24-.91,2.1a53.67,53.67,0,0,1-3.27,6.12l-1,1.59c-.34.52-.71,1-1,1.49-.66,1-1.39,1.82-2,2.58-1.21,1.46-2.06,2.4-2.06,2.4l-.6.63,0,0L15.48,779.75a37.75,37.75,0,0,0,9.76-23.53H42.38c0,.38,0,.81-.05,1.28A55.08,55.08,0,0,1,41.49,764.39Z" transform="translate(84 71.1)"/><path class="cls-3" d="M59.67,644.27l-1.61-.72c0-.38.06-.74.08-1.08.07-.67.06-1.24.07-1.63l0-.62,0-.62c0-.39,0-1-.07-1.63,0-.33-.05-.69-.08-1.07l1.61-.72c1.27-.59,2.54-1.24,3.48-1.75s1.54-.88,1.54-.88l-.11-.64c0-.19-.07-.42-.12-.66l-.17-.75-.17-.75-.08-.34-.09-.3-.18-.63s-.71-.06-1.77-.12l-.85,0-1,0c-.67,0-1.37,0-2.08,0l-1.77.05c-.12-.36-.27-.69-.39-1-.24-.63-.48-1.14-.64-1.5l-.26-.57-.28-.55c-.18-.35-.43-.86-.78-1.44l-.26-.46c-.09-.15-.18-.31-.28-.47.37-.43.76-.88,1.14-1.35.89-1.09,1.76-2.23,2.37-3.09s1-1.46,1-1.46l-.38-.53c-.23-.32-.56-.72-.88-1.13-.16-.2-.32-.41-.48-.6l-.44-.51-.43-.49-.46.18-1.2.49c-1,.42-2.28,1-3.54,1.62-.53.26-1.07.54-1.57.82l-.78-.74c-.5-.46-.94-.82-1.23-1.08l-.36-.29-.13-.1-.49-.38c-.3-.25-.77-.57-1.32-1l-.9-.59c.15-.55.31-1.13.45-1.72s.32-1.37.46-2,.25-1.26.34-1.78c.18-1.05.28-1.77.28-1.77l-.16-.09-.42-.22-1.28-.65-1.31-.59-.43-.19-.17-.07s-.5.52-1.21,1.32c-.35.4-.76.87-1.18,1.38s-.86,1-1.3,1.61-.73,1-1.06,1.42l-1-.33-.89-.25-.37-.11-.32-.08-.6-.14-.6-.14L31,608.42l-1.07-.14c-.1-.56-.22-1.15-.34-1.74-.29-1.37-.65-2.74-.94-3.77s-.51-1.71-.51-1.71h-.65L26,601l-1.43,0H24s-.22.69-.51,1.71-.65,2.39-.94,3.77c-.13.59-.24,1.18-.34,1.74l-1.07.14-1.61.29-.6.14-.6.14-.32.08-.37.11-.89.25-1,.33c-.34-.46-.69-.94-1.06-1.42s-.87-1.11-1.3-1.61-.83-1-1.18-1.38c-.71-.8-1.21-1.32-1.21-1.32l-.17.07-.43.19L9,604.88l-1.28.65-.42.22-.16.09s.1.71.28,1.77c.09.53.21,1.14.34,1.78s.29,1.33.46,2,.3,1.17.45,1.72l-.9.59c-.55.4-1,.71-1.32,1l-.49.38-.13.1-.36.29c-.3.26-.73.62-1.23,1.08l-.78.74c-.51-.27-1-.55-1.57-.82-1.25-.63-2.55-1.21-3.54-1.62l-1.2-.49-.46-.18-.43.49-.44.51c-.16.18-.32.39-.48.6-.32.41-.65.82-.88,1.13l-.38.53s.4.6,1,1.46,1.48,2,2.37,3.09c.38.47.77.92,1.14,1.35-.1.16-.2.32-.28.47l-.26.46c-.35.58-.6,1.09-.78,1.44l-.28.55-.26.57c-.16.36-.41.87-.64,1.5-.12.31-.26.64-.39,1L-6,629.28c-.7,0-1.41,0-2.08,0l-1,0-.85,0c-1.06.06-1.77.12-1.77.12l-.18.63-.09.3-.08.34-.17.75-.17.75c-.05.24-.09.47-.12.66l-.12.64s.61.37,1.54.88,2.21,1.16,3.48,1.75l1.61.72c0,.38-.06.74-.08,1.07-.07.67-.06,1.24-.07,1.63l0,.62,0,.62c0,.39,0,1,.07,1.63,0,.33.05.69.08,1.08l-1.61.72c-1.27.59-2.54,1.24-3.48,1.75s-1.54.88-1.54.88l.12.64c0,.19.07.42.12.66l.17.75.17.75.08.34.09.3.18.63s.71.06,1.77.12l.85,0,1,0c.67,0,1.37,0,2.08,0l1.77-.05c.12.36.27.69.39,1,.24.63.48,1.14.64,1.5l.26.57.28.55c.18.35.43.86.78,1.44l.26.46c.09.15.18.31.28.47-.37.43-.76.88-1.14,1.35-.89,1.09-1.76,2.23-2.37,3.09s-1,1.46-1,1.46l.38.53c.23.32.56.72.88,1.13.16.2.32.41.48.6l.44.51.43.49.46-.18,1.2-.49c1-.42,2.28-1,3.54-1.62.53-.26,1.07-.54,1.57-.82l.78.74c.5.46.94.82,1.23,1.08l.36.29.13.1.49.38c.3.25.77.57,1.32,1l.9.59c-.15.55-.31,1.13-.45,1.72s-.32,1.37-.46,2-.25,1.26-.34,1.78c-.18,1.05-.28,1.77-.28,1.77l.16.09.42.22,1.28.65,1.31.59.43.19.17.07s.5-.52,1.21-1.32c.35-.4.76-.87,1.18-1.38s.86-1,1.3-1.61.73-1,1.06-1.42l1,.33.89.25.37.11.32.08.6.14.6.14,1.61.29,1.07.14c.1.56.22,1.15.34,1.74.29,1.37.65,2.74.94,3.77s.51,1.71.51,1.71h.65l1.43,0,1.43,0h.65s.22-.69.51-1.71.65-2.39.94-3.77c.13-.59.24-1.18.34-1.74L31,672l1.61-.29.6-.14.6-.14.32-.08.37-.11.89-.25,1-.33c.34.46.69.94,1.06,1.42s.87,1.11,1.3,1.61.83,1,1.18,1.38c.71.8,1.21,1.32,1.21,1.32l.17-.07.43-.19,1.31-.59,1.28-.65.42-.22.16-.09s-.1-.71-.28-1.77c-.09-.53-.21-1.14-.34-1.78s-.29-1.33-.46-2-.3-1.17-.45-1.72l.9-.59c.55-.4,1-.71,1.32-1l.49-.38.13-.1.36-.29c.3-.26.73-.62,1.23-1.08l.78-.74c.51.27,1,.55,1.57.82,1.25.63,2.55,1.21,3.54,1.62l1.2.49.46.18.43-.49.44-.51c.16-.19.32-.39.48-.6.32-.41.65-.82.88-1.13L58,663s-.4-.6-1-1.46-1.48-2-2.37-3.09c-.38-.47-.77-.92-1.14-1.35.1-.16.2-.32.28-.47l.26-.46c.35-.58.6-1.09.78-1.44l.28-.55.26-.57c.16-.36.41-.87.64-1.5.12-.31.26-.64.39-1l1.77.05c.7,0,1.41,0,2.08,0l1,0,.85,0c1.06-.06,1.77-.12,1.77-.12l.18-.63L64,650l.08-.34.17-.75.17-.75c.05-.24.09-.47.12-.66l.11-.64s-.61-.37-1.54-.88S60.94,644.86,59.67,644.27ZM26,660.24a20,20,0,1,1,20-20A20,20,0,0,1,26,660.24Z" transform="translate(84 71.1)"/><path class="cls-3" d="M163.91,821.62c-.86-.4-1.72-.78-2.54-1.13.05-.6.09-1.17.13-1.7.1-1.06.09-2,.11-2.58l0-1,0-1c0-.62,0-1.52-.11-2.58,0-.53-.08-1.1-.13-1.7.83-.35,1.68-.73,2.54-1.13,2-.93,4-2,5.49-2.76s2.44-1.38,2.44-1.38l-.18-1c-.06-.3-.11-.66-.19-1l-.27-1.18-.27-1.18-.13-.54-.13-.48-.28-1s-1.13-.1-2.8-.19l-1.35-.06-1.52,0c-1.05,0-2.17,0-3.28,0-.95,0-1.89,0-2.79.08-.19-.57-.42-1.09-.61-1.59-.37-1-.76-1.8-1-2.37l-.4-.89-.45-.87c-.29-.55-.68-1.36-1.23-2.27l-.42-.72c-.14-.24-.28-.49-.45-.74.59-.68,1.2-1.39,1.8-2.13,1.41-1.71,2.78-3.51,3.74-4.87s1.6-2.31,1.6-2.31l-.6-.84c-.36-.5-.88-1.14-1.39-1.79-.26-.32-.5-.65-.76-.94l-.69-.8-.67-.78-.72.28c-.46.18-1.1.44-1.89.77-1.56.66-3.6,1.57-5.58,2.56-.84.42-1.68.86-2.48,1.29-.43-.42-.84-.82-1.23-1.17-.79-.72-1.48-1.29-1.94-1.7-.24-.2-.44-.35-.56-.45l-.2-.16-.77-.61c-.48-.4-1.22-.9-2.09-1.52-.43-.3-.91-.61-1.42-.94.24-.87.48-1.78.71-2.71.27-1.09.51-2.17.72-3.19s.39-2,.54-2.81c.29-1.66.45-2.79.45-2.79l-.25-.14-.66-.34-2-1-2.07-.94-.68-.31-.26-.11s-.78.82-1.9,2.08c-.56.63-1.2,1.37-1.87,2.17s-1.36,1.66-2,2.55-1.15,1.51-1.68,2.24l-1.62-.53-1.4-.4-.58-.17-.5-.12-1-.22-1-.22c-.61-.12-1.49-.27-2.54-.46l-1.69-.22c-.16-.89-.34-1.82-.54-2.75-.46-2.16-1-4.32-1.48-5.94s-.81-2.71-.81-2.71h-.28l-.74,0-2.26-.05-2.26.05-.74,0h-.28s-.35,1.08-.81,2.71-1,3.78-1.48,5.94c-.2.93-.38,1.86-.54,2.75L103,765c-1.05.19-1.93.34-2.54.46l-1,.22-1,.22-.5.12-.58.17-1.4.4-1.62.53c-.53-.73-1.09-1.49-1.68-2.24s-1.38-1.74-2-2.55-1.31-1.54-1.87-2.17c-1.12-1.26-1.9-2.08-1.9-2.08l-.26.11-.68.31-2.07.94-2,1-.66.34L81,761s.16,1.13.45,2.79c.15.83.33,1.79.54,2.81s.45,2.1.72,3.19c.23.93.47,1.84.71,2.71-.51.33-1,.64-1.42.94-.87.62-1.61,1.12-2.09,1.52l-.77.61-.2.16c-.13.11-.33.25-.56.45-.47.41-1.15,1-1.94,1.7-.39.36-.8.75-1.23,1.17-.8-.43-1.64-.87-2.48-1.29-2-1-4-1.91-5.58-2.56-.78-.33-1.43-.59-1.89-.77l-.72-.28-.67.78-.69.8c-.25.29-.5.62-.76.94-.51.65-1,1.29-1.39,1.79l-.6.84s.62.94,1.6,2.31,2.33,3.16,3.74,4.88c.6.74,1.21,1.45,1.8,2.13-.16.25-.31.5-.45.74l-.42.72c-.55.92-.94,1.72-1.23,2.27l-.45.87-.4.89c-.25.57-.64,1.37-1,2.37-.19.49-.42,1-.61,1.59-.9,0-1.84-.07-2.79-.08-1.11,0-2.23,0-3.28,0l-1.52,0-1.35.06c-1.67.09-2.8.19-2.8.19l-.28,1-.13.48-.13.54-.27,1.18-.27,1.18c-.08.38-.14.73-.19,1l-.18,1s1,.58,2.44,1.38,3.49,1.83,5.49,2.76c.86.4,1.72.78,2.54,1.13-.05.6-.09,1.17-.13,1.7-.1,1.06-.09,2-.11,2.58l0,1,0,1c0,.62,0,1.52.11,2.58,0,.53.08,1.1.13,1.7-.83.35-1.68.73-2.54,1.13-2,.93-4,2-5.49,2.76s-2.44,1.38-2.44,1.38l.18,1c.06.3.11.66.19,1l.27,1.18.27,1.18.13.54.13.48.28,1s1.13.1,2.8.19l1.35.06,1.52,0c1.05,0,2.17,0,3.28,0,.95,0,1.89,0,2.79-.08.19.57.42,1.09.61,1.59.37,1,.76,1.8,1,2.37l.4.89.45.87c.29.55.68,1.36,1.23,2.27l.42.72c.14.24.28.49.45.74-.59.68-1.2,1.39-1.8,2.13-1.41,1.71-2.78,3.51-3.74,4.87s-1.6,2.31-1.6,2.31l.6.84c.36.5.88,1.14,1.39,1.79.26.32.5.65.76.94l.69.8.67.78.72-.28c.46-.18,1.1-.44,1.89-.77,1.56-.66,3.6-1.57,5.58-2.56.84-.42,1.68-.86,2.48-1.29.43.42.84.82,1.23,1.17.79.72,1.48,1.29,1.94,1.7.24.2.44.35.56.45l.2.16.77.61c.48.4,1.22.9,2.09,1.52.43.3.91.61,1.42.94-.24.87-.48,1.78-.71,2.71-.27,1.09-.51,2.17-.72,3.19s-.39,2-.54,2.81c-.29,1.66-.45,2.79-.45,2.79l.25.14L82,870l2,1L86,872l.68.31.26.11s.78-.82,1.9-2.08c.56-.63,1.2-1.37,1.87-2.17s1.36-1.66,2-2.55,1.15-1.51,1.68-2.24l1.62.53,1.4.4.58.17.5.12,1,.22,1,.22c.61.12,1.49.27,2.54.46l1.69.22c.16.89.34,1.82.54,2.75.46,2.16,1,4.32,1.48,5.94s.81,2.71.81,2.71h.28l.74,0,2.26.05,2.26-.05.74,0h.28s.35-1.08.81-2.71,1-3.78,1.48-5.94c.2-.93.38-1.86.54-2.75l1.69-.22c1.05-.19,1.93-.34,2.54-.46l1-.22,1-.22.5-.12.58-.17,1.4-.4,1.62-.53c.53.73,1.09,1.49,1.68,2.24s1.38,1.74,2,2.55,1.31,1.54,1.87,2.17c1.12,1.26,1.9,2.08,1.9,2.08l.26-.11.68-.31,2.07-.94,2-1,.66-.34.25-.14s-.16-1.13-.45-2.79c-.15-.83-.33-1.79-.54-2.81s-.45-2.1-.72-3.19c-.23-.93-.47-1.84-.71-2.71.51-.33,1-.64,1.42-.94.87-.62,1.61-1.12,2.09-1.52l.77-.61.2-.16c.13-.11.33-.25.56-.45.47-.41,1.15-1,1.94-1.7.39-.36.8-.75,1.23-1.17.8.43,1.64.87,2.48,1.29,2,1,4,1.91,5.58,2.56.78.33,1.43.59,1.89.77l.72.28.67-.78.69-.8c.25-.29.5-.62.76-.94.51-.65,1-1.29,1.39-1.79l.6-.84s-.62-.94-1.6-2.31-2.33-3.16-3.74-4.87c-.6-.74-1.21-1.45-1.8-2.13.16-.25.31-.5.45-.74l.42-.72c.55-.92.94-1.72,1.23-2.27l.45-.87.4-.89c.25-.57.64-1.37,1-2.37.19-.49.42-1,.61-1.59.9,0,1.84.07,2.79.08,1.11,0,2.23,0,3.28,0l1.52,0,1.35-.06c1.67-.09,2.8-.19,2.8-.19l.28-1,.13-.48.13-.54.27-1.18.27-1.18c.08-.38.14-.73.19-1l.18-1s-1-.58-2.44-1.38S165.91,822.55,163.91,821.62Zm-53.06,25.2a31.58,31.58,0,1,1,31.58-31.58A31.58,31.58,0,0,1,110.84,846.82Z" transform="translate(84 71.1)"/><path class="cls-3" d="M156.14,700.43c-.73-.34-1.45-.66-2.15-1,0-.51.08-1,.11-1.43.09-.9.07-1.65.1-2.18l0-.83,0-.83c0-.53,0-1.28-.1-2.18,0-.44-.07-.93-.11-1.43.7-.3,1.42-.62,2.15-1,1.7-.78,3.39-1.65,4.64-2.33s2.06-1.17,2.06-1.17l-.15-.86c0-.26-.1-.56-.16-.88l-.23-1-.23-1L162,682l-.11-.41-.24-.84s-1-.09-2.37-.16l-1.14-.05-1.28,0c-.89,0-1.83,0-2.77,0s-1.6,0-2.35.07c-.16-.48-.36-.92-.52-1.34-.32-.85-.64-1.52-.86-2l-.34-.75-.38-.74c-.24-.47-.57-1.14-1-1.92l-.35-.61c-.12-.21-.24-.42-.38-.63.5-.57,1-1.18,1.52-1.8,1.19-1.45,2.34-3,3.16-4.12s1.35-2,1.35-2l-.51-.71c-.3-.42-.74-1-1.17-1.51-.22-.27-.43-.55-.64-.8L151,661l-.57-.66-.61.24c-.39.15-.93.37-1.59.65-1.32.55-3,1.33-4.71,2.16-.71.35-1.42.73-2.1,1.09-.36-.36-.71-.69-1-1-.67-.61-1.25-1.09-1.64-1.44-.2-.17-.37-.29-.48-.38l-.17-.13-.65-.51c-.4-.34-1-.76-1.76-1.28l-1.2-.79c.2-.73.41-1.51.6-2.29s.43-1.83.61-2.69.33-1.68.45-2.38c.24-1.4.38-2.35.38-2.35l-.21-.12-.56-.29-1.71-.87-1.74-.79-.58-.26-.22-.09s-.66.7-1.61,1.76c-.47.53-1,1.16-1.58,1.83s-1.15,1.4-1.73,2.15-1,1.28-1.42,1.9l-1.37-.45-1.18-.34-.49-.14-.42-.1-.81-.19-.81-.19-2.15-.39-1.43-.18c-.14-.75-.29-1.54-.46-2.33-.39-1.83-.86-3.65-1.25-5s-.68-2.29-.68-2.29h-.24l-.63,0-1.91,0-1.91,0-.63,0h-.24s-.29.92-.68,2.29-.86,3.19-1.25,5c-.17.79-.32,1.58-.46,2.33l-1.43.18-2.15.39-.81.19-.81.19-.42.1-.49.14-1.18.34-1.37.45c-.45-.62-.92-1.26-1.42-1.9s-1.16-1.47-1.73-2.15-1.11-1.3-1.58-1.83c-.95-1.07-1.61-1.76-1.61-1.76l-.22.09-.58.26-1.74.79-1.71.87-.56.29-.21.12s.13,1,.38,2.35c.12.7.27,1.51.45,2.38s.38,1.77.61,2.69.4,1.55.6,2.29l-1.2.79c-.73.53-1.36.95-1.76,1.28l-.65.51-.17.13c-.11.09-.28.21-.48.38-.39.35-1,.83-1.64,1.44-.33.3-.68.63-1,1-.67-.36-1.38-.74-2.1-1.09-1.67-.83-3.4-1.61-4.71-2.16-.66-.28-1.21-.5-1.59-.65l-.61-.24-.57.66-.58.67c-.21.25-.42.53-.64.8-.43.55-.87,1.09-1.17,1.51l-.51.71s.53.8,1.35,2,2,2.67,3.16,4.12c.51.62,1,1.23,1.52,1.8-.14.21-.26.42-.38.63l-.35.61c-.46.77-.79,1.45-1,1.92l-.38.74-.34.75c-.21.48-.54,1.16-.86,2-.16.42-.35.86-.52,1.34-.76,0-1.55-.06-2.35-.07s-1.88,0-2.77,0l-1.28,0-1.14.05c-1.41.08-2.37.16-2.37.16l-.24.84-.11.41-.11.46-.23,1-.23,1c-.07.32-.12.62-.16.88l-.15.86s.82.49,2.06,1.17,2.94,1.55,4.64,2.33c.73.34,1.45.66,2.15,1,0,.51-.08,1-.11,1.43-.09.9-.07,1.65-.1,2.18l0,.83,0,.83c0,.53,0,1.28.1,2.18,0,.44.07.93.11,1.43-.7.3-1.42.62-2.15,1-1.7.78-3.39,1.65-4.64,2.33s-2.06,1.17-2.06,1.17l.15.86c0,.26.1.56.16.88l.23,1,.23,1,.11.46.11.41.24.84s1,.09,2.37.16l1.14.05,1.28,0c.89,0,1.83,0,2.77,0s1.6,0,2.35-.07c.16.48.36.92.52,1.34.32.85.64,1.52.86,2l.34.75.38.74c.24.47.57,1.14,1,1.92l.35.61c.12.21.24.42.38.63-.5.57-1,1.18-1.52,1.8-1.19,1.45-2.34,3-3.16,4.12s-1.35,2-1.35,2l.51.71c.3.42.74,1,1.17,1.51.22.27.43.55.64.8l.58.67.57.66.61-.24c.39-.15.93-.37,1.59-.65,1.32-.55,3-1.33,4.71-2.16.71-.35,1.42-.73,2.1-1.09.36.36.71.69,1,1,.67.61,1.25,1.09,1.64,1.44.2.17.37.29.48.38l.17.13.65.51c.4.34,1,.76,1.76,1.28l1.2.79c-.2.73-.41,1.51-.6,2.29s-.43,1.83-.61,2.69-.33,1.68-.45,2.38c-.24,1.4-.38,2.35-.38,2.35l.21.12.56.29,1.71.87,1.74.79.58.26.22.09s.66-.7,1.61-1.76c.47-.53,1-1.16,1.58-1.83s1.15-1.4,1.73-2.15,1-1.28,1.42-1.9l1.37.45,1.18.34.49.14.42.1.81.19.81.19,2.15.39,1.43.19c.14.75.29,1.54.46,2.33.39,1.83.86,3.65,1.25,5s.68,2.29.68,2.29h.24l.63,0,1.91,0,1.91,0,.63,0h.24s.29-.92.68-2.29.86-3.19,1.25-5c.17-.79.32-1.58.46-2.33l1.43-.19,2.15-.39.81-.19.81-.19.42-.1.49-.14,1.18-.34,1.37-.45c.45.62.92,1.26,1.42,1.9s1.16,1.47,1.73,2.15,1.11,1.3,1.58,1.83c.95,1.07,1.61,1.76,1.61,1.76l.22-.09.58-.26,1.74-.79,1.71-.87.56-.29.21-.12s-.13-1-.38-2.35c-.12-.7-.27-1.51-.45-2.38s-.38-1.77-.61-2.69-.4-1.55-.6-2.29l1.2-.79c.73-.53,1.36-.95,1.76-1.28l.65-.51.17-.13c.11-.09.28-.21.48-.38.39-.35,1-.83,1.64-1.44.33-.3.68-.63,1-1,.67.36,1.38.74,2.1,1.09,1.67.83,3.4,1.61,4.71,2.16.66.28,1.21.5,1.59.65l.61.24.57-.66.58-.67c.21-.25.42-.53.64-.8.43-.55.87-1.09,1.17-1.51l.51-.71s-.53-.8-1.35-2-2-2.67-3.16-4.12c-.51-.62-1-1.23-1.52-1.8.14-.21.26-.42.38-.63l.35-.61c.46-.77.79-1.45,1-1.92l.38-.74.34-.75c.21-.48.54-1.16.86-2,.16-.42.35-.86.52-1.34.76,0,1.55.06,2.35.07s1.88,0,2.77,0l1.28,0,1.14-.05c1.41-.08,2.37-.16,2.37-.16l.24-.84.11-.41.11-.46.23-1,.23-1c.07-.32.12-.62.16-.88l.15-.86s-.82-.49-2.06-1.17S157.83,701.22,156.14,700.43Zm-13.68,10.34c-.2.38-.46.93-.84,1.56l-.28.5c-.1.17-.2.35-.32.52l-.71,1.11c-.26.38-.54.76-.82,1.16l-.21.3-.23.29-.45.58a36.35,36.35,0,0,1-3.67,3.94c-.54.5-1,.88-1.34,1.17-.16.14-.3.24-.39.31l-.14.11-.53.42c-.33.28-.84.61-1.43,1a37.19,37.19,0,0,1-4.64,2.71,37.58,37.58,0,0,1-5,1.95l-1,.27-.4.12-.34.08-.65.15-.65.15-1.74.32a35.3,35.3,0,0,1-10.75,0l-1.74-.32-.65-.15-.65-.15-.34-.08-.4-.12-1-.27a37.58,37.58,0,0,1-5-1.95,37.2,37.2,0,0,1-4.64-2.71c-.59-.43-1.11-.77-1.43-1l-.53-.42-.14-.11c-.09-.07-.23-.17-.39-.31-.32-.29-.79-.68-1.34-1.17A36.36,36.36,0,0,1,84,716.79l-.45-.58-.23-.29-.21-.3c-.28-.4-.56-.78-.82-1.16l-.71-1.11c-.12-.17-.22-.35-.32-.52l-.28-.5c-.38-.63-.64-1.18-.84-1.56l-.31-.6-.28-.61c-.17-.39-.44-.94-.7-1.63-.13-.34-.29-.71-.43-1.1L78,705.58c-.26-.88-.54-1.81-.74-2.77l-.17-.71-.13-.72-.13-.7c0-.12,0-.23-.06-.35l0-.34-.17-1.31-.09-1.18c-.08-.73-.06-1.35-.08-1.78l0-.68,0-.68c0-.43,0-1,.08-1.78l.09-1.18.17-1.31,0-.34c0-.12,0-.23.06-.35l.13-.7.13-.72.17-.71c.2-1,.49-1.89.74-2.77l.42-1.25c.13-.4.3-.76.43-1.1.25-.69.52-1.24.7-1.63l.28-.61.31-.6c.2-.38.46-.93.84-1.56l.28-.5c.1-.17.2-.35.32-.52l.71-1.11c.26-.38.54-.76.82-1.16l.21-.3.23-.29.45-.58a36.36,36.36,0,0,1,3.67-3.94c.54-.5,1-.88,1.34-1.17.16-.14.3-.24.39-.31l.14-.11.53-.42c.33-.28.84-.61,1.43-1a37.2,37.2,0,0,1,4.64-2.71,37.6,37.6,0,0,1,5-1.95l1-.27.4-.12.34-.08.65-.15.65-.15,1.74-.32a35.3,35.3,0,0,1,10.75,0l1.74.32.65.15.65.15.34.08.4.12,1,.27a37.59,37.59,0,0,1,5,1.95,37.19,37.19,0,0,1,4.64,2.71c.59.43,1.11.77,1.43,1l.53.42.14.11c.09.07.23.17.39.31.32.29.79.68,1.34,1.17a36.35,36.35,0,0,1,3.67,3.94l.45.58.23.29.21.3c.28.4.56.78.82,1.16l.71,1.11c.12.17.22.35.32.52l.28.5c.38.63.65,1.18.84,1.56l.31.6.28.61c.17.39.44.94.7,1.63.13.34.29.71.43,1.1l.42,1.25c.26.88.54,1.81.74,2.77l.17.71.13.72.13.7c0,.12,0,.23.06.35l0,.34.17,1.31.09,1.18c.08.73.06,1.35.08,1.78l0,.68,0,.68c0,.43,0,1-.08,1.78l-.09,1.18-.17,1.31,0,.34c0,.12,0,.23-.06.35l-.13.7-.13.72-.17.71c-.2,1-.49,1.89-.74,2.77l-.42,1.25c-.13.4-.3.76-.43,1.1-.25.69-.52,1.24-.7,1.63l-.28.61Z" transform="translate(84 71.1)"/><circle class="cls-3" cx="195.31" cy="766.14" r="25.69"/><path class="cls-3" d="M265.69,823.64c.07-1.78-3.43-3.29-6.13-4.83a34.83,34.83,0,0,0-1.21-6.5c2-2.42,4.68-5.07,4-6.65s-4.5-1.43-7.61-1.65a35.21,35.21,0,0,0-3.92-5.33c.72-3,2-6.61.7-7.75s-4.66.67-7.55,1.81a34.91,34.91,0,0,0-5.84-3.11c-.66-3-1-6.83-2.75-7.29s-3.87,2.64-6,4.92c-1.1-.15-2.21-.25-3.34-.29s-2.25,0-3.35,0c-1.93-2.45-3.9-5.7-5.58-5.39s-2.42,4.07-3.32,7a34.91,34.91,0,0,0-6.07,2.64c-2.8-1.37-6-3.43-7.39-2.41s-.39,4.7.08,7.78a35.2,35.2,0,0,0-4.33,5c-3.11,0-6.89-.5-7.72,1s1.69,4.38,3.45,6.95A34.84,34.84,0,0,0,190.1,816c-2.82,1.32-6.42,2.54-6.5,4.32s3.43,3.29,6.13,4.83a34.84,34.84,0,0,0,1.21,6.5c-2,2.42-4.68,5.07-4,6.65s4.5,1.43,7.61,1.65a35.2,35.2,0,0,0,3.92,5.33c-.72,3-2,6.61-.7,7.75s4.66-.67,7.55-1.81a34.91,34.91,0,0,0,5.84,3.11c.66,3,1,6.83,2.75,7.29s3.87-2.64,6-4.92c1.1.15,2.21.25,3.34.29s2.25,0,3.35,0c1.93,2.45,3.9,5.7,5.58,5.39s2.42-4.07,3.32-7a34.9,34.9,0,0,0,6.07-2.64c2.8,1.37,6,3.43,7.39,2.41s.39-4.7-.08-7.78a35.21,35.21,0,0,0,4.33-5c3.11,0,6.89.5,7.71-1s-1.69-4.38-3.45-6.95a34.84,34.84,0,0,0,1.73-6.38C262,826.64,265.62,825.42,265.69,823.64Zm-41,29.06a30.7,30.7,0,1,1,30.7-30.7A30.7,30.7,0,0,1,224.65,852.7Z" transform="translate(84 71.1)"/><path class="cls-3" d="M209.77,758.13l0-.43c0-.38,0-.71,0-.93v-.71c0-.22,0-.55,0-.93l0-.43.8-.56c.77-.56,1.52-1.2,1.52-1.2l0-.34-.13-.74c0-.27-.1-.53-.15-.73l-.08-.33-.58-.2c-.34-.11-.81-.25-1.28-.38l-.94-.23c0-.15-.08-.29-.13-.42-.12-.37-.22-.67-.3-.88l-.13-.33-.13-.33c-.08-.21-.21-.5-.37-.86l-.18-.39c.17-.24.35-.52.53-.8s.51-.82.69-1.14l.29-.53L209,744c-.1-.18-.23-.42-.38-.64l-.4-.63c-.11-.17-.19-.28-.19-.28s-1,0-1.93.14l-1,.13-.27-.34c-.49-.59-.84-1-.84-1l-.24-.26c-.16-.16-.37-.4-.65-.67l-.32-.3c.07-.29.15-.62.21-.95.19-.93.32-1.91.32-1.91l-.27-.21-.59-.46c-.21-.17-.44-.32-.6-.44l-.28-.2-.56.24c-.33.15-.77.36-1.2.58l-.62.33-.23.13-.38-.22-.46-.26-.36-.19-.31-.16-.32-.16-.85-.38-.4-.16c0-.29-.09-.62-.14-1s-.18-.95-.26-1.3l-.14-.59-.32-.11c-.19-.07-.46-.13-.72-.21s-.52-.15-.72-.2l-.33-.08-.43.43c-.26.26-.59.61-.9,1l-.63.74-.43-.07-.93-.12-.26,0h-.09l-.35,0c-.22,0-.54,0-.93-.05h-.44c-.14-.26-.31-.56-.48-.84-.49-.82-1.05-1.63-1.05-1.63h-.09l-.25,0-.74.06c-.27,0-.54.06-.74.08l-.34,0-.25.55c-.15.33-.33.79-.49,1.24s-.23.63-.32.91l-.42.09c-.38.09-.69.15-.91.22l-.34.1-.34.1c-.22.05-.52.17-.89.29l-.41.14-.75-.6c-.38-.29-.77-.59-1.07-.79l-.5-.34-.31.14c-.19.08-.43.2-.67.32l-.66.34-.22.12-.08,0s-.06,1,0,1.94c0,.34,0,.68,0,1l-.37.24-.76.54-.28.21-.28.22c-.17.14-.44.33-.72.59l-.33.29c-.28-.1-.6-.2-.92-.3s-.93-.26-1.28-.35l-.6-.14-.75.79-.71.82s.07.23.19.58.29.8.47,1.25.26.62.38.89l-.25.36c-.23.31-.4.58-.52.77l-.19.3,0,.08-.13.22-.46.81-.2.39-1,.05c-.49,0-1,.09-1.32.14l-.61.08-.14.31-.27.69c-.1.25-.2.51-.26.7l-.11.32.39.47c.23.28.56.64.89,1l.67.69c0,.15-.08.29-.11.42-.09.38-.16.69-.21.91l-.06.35-.06.35c0,.11,0,.25-.07.4l-.07.52c0,.14,0,.28-.05.43l-.24.1-.63.3c-.43.21-.86.43-1.19.61l-.39.21-.14.08,0,1.08,0,1.08.14.08.39.21c.32.17.76.4,1.19.61l.63.3.24.1c0,.15,0,.3.05.43l.07.52c0,.15.05.29.07.4l.06.35.06.35c0,.22.12.53.21.91,0,.13.07.28.11.42l-.67.69c-.33.35-.66.72-.89,1l-.39.47.11.32c.06.19.16.45.26.7l.27.69.14.31.61.08c.37,0,.83.1,1.32.14l1,.05.2.39.46.81.13.22,0,.08.19.3c.12.19.29.46.52.77l.25.36c-.12.27-.26.58-.38.89s-.35.9-.47,1.25-.19.58-.19.58l.71.82.75.79.6-.14c.36-.09.82-.21,1.28-.35s.64-.2.92-.3l.33.29c.29.26.55.45.72.59l.28.22.28.21.76.54.37.24c0,.29,0,.63,0,1,0,1,0,1.94,0,1.94l.08,0,.22.12.66.34c.24.13.49.24.67.32l.31.14.5-.34c.3-.2.69-.5,1.07-.79l.75-.6.41.14c.37.12.67.23.89.29l.34.1.34.1c.21.07.53.13.91.22l.42.09c.09.28.2.59.32.91s.35.91.49,1.24l.25.55.34,0c.2,0,.47.07.74.08l.74.06.25,0h.09s.57-.81,1.05-1.63c.17-.29.34-.58.48-.84h.44c.39,0,.71,0,.93-.05l.35,0h.09l.26,0,.93-.12.43-.07.63.74c.32.37.65.71.9,1l.43.43.33-.08c.2,0,.46-.13.72-.2s.52-.14.72-.21l.32-.11.14-.59c.08-.35.18-.82.26-1.3s.11-.67.14-1l.4-.16.85-.38.32-.16.31-.16.36-.19.46-.26.38-.22.23.13.62.33c.43.22.86.43,1.2.58l.56.24.28-.2c.16-.12.39-.27.6-.44l.59-.46.27-.21s-.13-1-.32-1.91c-.07-.33-.14-.66-.21-.95l.32-.3c.28-.26.49-.51.65-.67l.24-.26s.34-.38.84-1l.27-.34,1,.13c.94.1,1.93.14,1.93.14s.08-.11.19-.28l.4-.63c.15-.23.28-.47.38-.64l.17-.29-.29-.53c-.18-.32-.43-.74-.69-1.14s-.37-.56-.53-.8l.18-.39c.16-.35.29-.64.37-.86l.13-.33.13-.33c.08-.21.18-.52.3-.88,0-.13.09-.27.13-.42l.94-.23c.47-.12.94-.26,1.28-.38l.58-.2.08-.33c0-.2.1-.46.15-.73l.13-.74,0-.34s-.75-.64-1.52-1.2Zm-22.32,15.62a17.34,17.34,0,1,1,17.34-17.34A17.34,17.34,0,0,1,187.45,773.75Z" transform="translate(84 71.1)"/><path class="cls-3" d="M370.46,802.39c0-.23,0-.46.05-.66,0-.59,0-1.08,0-1.42v-1.08c0-.34,0-.84,0-1.42,0-.21,0-.43-.05-.66.37-.25.79-.54,1.22-.85,1.18-.86,2.32-1.83,2.32-1.83l-.07-.51-.2-1.12c-.07-.41-.15-.82-.22-1.12l-.12-.51-.88-.3c-.52-.18-1.24-.39-2-.58l-1.43-.36c-.06-.22-.13-.44-.2-.64-.19-.56-.34-1-.46-1.35l-.2-.5-.2-.5c-.12-.32-.32-.77-.57-1.31l-.28-.6c.26-.37.54-.79.81-1.23.39-.62.78-1.26,1.06-1.74l.45-.81-.26-.45c-.16-.27-.35-.63-.58-1l-.62-1c-.17-.26-.29-.43-.29-.43s-1.51.06-3,.21c-.52.06-1,.13-1.47.19l-.41-.52c-.75-.91-1.28-1.49-1.28-1.49l-.37-.39c-.24-.24-.56-.62-1-1l-.48-.46c.11-.44.22-.94.32-1.45.29-1.43.48-2.93.48-2.93l-.41-.32-.9-.7c-.33-.26-.67-.49-.92-.67l-.42-.3s-.34.14-.85.37-1.18.56-1.83.89l-.94.5-.35.2-.58-.33-.7-.4-.55-.28-.48-.25-.48-.24-1.3-.59-.62-.25c-.06-.44-.13-.95-.22-1.46-.12-.73-.27-1.45-.39-2l-.21-.91-.49-.17c-.29-.1-.7-.21-1.1-.32s-.8-.23-1.1-.3l-.51-.12-.66.66c-.39.4-.9.93-1.38,1.49-.34.39-.67.78-1,1.13l-.66-.11-1.41-.18-.4,0h-.14l-.54,0c-.34,0-.83-.08-1.42-.08l-.67,0c-.22-.4-.47-.85-.73-1.29-.75-1.25-1.61-2.49-1.61-2.49h-.14l-.37,0-1.14.09c-.41,0-.82.09-1.13.12l-.51.07-.38.85c-.22.51-.5,1.21-.76,1.89-.18.49-.35,1-.49,1.39l-.65.14c-.57.14-1.06.23-1.39.34l-.52.15-.52.15c-.33.08-.79.26-1.35.44l-.63.22c-.34-.29-.74-.6-1.15-.92-.58-.45-1.18-.9-1.64-1.21l-.77-.52-.47.21c-.28.13-.66.3-1,.49l-1,.52-.33.18-.12.07s-.09,1.5-.06,3c0,.52,0,1,.06,1.48l-.56.36c-.49.33-.88.62-1.17.82s-.44.32-.44.32l-.43.33c-.27.22-.67.51-1.1.9l-.5.44c-.43-.15-.92-.31-1.41-.45-.7-.21-1.42-.4-2-.54l-.91-.22-1.14,1.2-1.09,1.25s.11.35.3.89.44,1.23.72,1.9c.19.48.39.95.58,1.36l-.39.54c-.35.48-.61.89-.79,1.18l-.29.46-.08.12c-.05.08-.12.19-.21.34l-.71,1.24-.31.59-1.48.08c-.74.05-1.46.14-2,.21l-.93.13-.21.47-.42,1.06c-.15.39-.3.77-.4,1.07l-.17.49.59.72c.35.42.85,1,1.36,1.52.36.38.71.74,1,1.06-.06.22-.12.44-.17.65-.13.58-.25,1.05-.32,1.39l-.1.53-.1.53c0,.17-.07.37-.11.61l-.1.8c0,.21-.06.43-.08.66l-.37.16-1,.45c-.66.32-1.32.66-1.81.93l-.59.33-.22.13,0,1.66,0,1.66.22.13.59.33c.5.27,1.16.61,1.81.93l1,.45.37.16c0,.23.05.46.08.66l.1.8c0,.24.08.44.11.61l.1.53.1.53c.07.34.19.81.32,1.39,0,.2.1.42.17.65-.32.31-.67.68-1,1.06-.51.54-1,1.09-1.36,1.52l-.59.72.17.49c.09.3.24.68.4,1.07l.42,1.06.21.47.93.13c.56.07,1.27.16,2,.21l1.48.08.31.59.71,1.24c.08.15.16.27.21.34l.08.12.29.46c.19.29.45.71.79,1.18l.39.54c-.19.41-.39.88-.58,1.36-.27.68-.53,1.37-.72,1.9s-.3.89-.3.89l1.09,1.25,1.14,1.2.91-.22c.54-.14,1.26-.33,2-.54.49-.14,1-.31,1.41-.45l.5.44c.44.39.84.68,1.1.9l.43.33s.15.12.44.32.68.49,1.17.82l.56.36c0,.45,0,1-.06,1.48,0,1.46.06,3,.06,3l.12.07.33.18,1,.52c.37.19.74.37,1,.49l.47.21.77-.52c.45-.31,1.06-.77,1.64-1.21.41-.32.8-.64,1.15-.92l.63.22c.56.18,1,.36,1.35.44l.52.15.52.15c.33.1.81.2,1.39.34l.65.14c.14.42.31.9.49,1.39.26.69.53,1.39.76,1.89l.38.85.51.07c.31,0,.72.1,1.13.12l1.14.09.37,0h.14s.86-1.24,1.61-2.49c.27-.44.52-.89.73-1.29l.67,0c.59,0,1.08-.06,1.42-.08l.54,0h.14l.4,0,1.41-.18.66-.11c.28.35.61.74,1,1.13.49.56,1,1.09,1.38,1.49l.66.66.51-.12c.3-.07.7-.19,1.1-.3s.8-.22,1.1-.32l.49-.17.21-.91c.12-.54.28-1.26.39-2,.09-.51.16-1,.22-1.46l.62-.25,1.3-.59.48-.24.48-.25.55-.28.7-.4L354,829l.35.2.94.5c.65.33,1.32.66,1.83.89s.85.37.85.37l.42-.3c.25-.18.6-.41.92-.67l.9-.7.41-.32s-.2-1.5-.48-2.93c-.1-.5-.22-1-.32-1.45l.48-.46c.43-.4.75-.78,1-1l.37-.39s.53-.58,1.28-1.49l.41-.52c.44.07,1,.13,1.47.19,1.44.15,3,.21,3,.21s.12-.17.29-.43l.62-1c.23-.35.43-.71.58-1l.26-.45-.45-.81c-.28-.49-.66-1.13-1.06-1.74-.28-.44-.56-.86-.81-1.23l.28-.6c.25-.54.45-1,.57-1.31l.2-.5.2-.5c.12-.32.27-.79.46-1.35.07-.2.13-.41.2-.64l1.43-.36c.71-.19,1.43-.4,2-.58l.88-.3.12-.51c.08-.3.15-.71.22-1.12l.2-1.12.07-.51s-1.14-1-2.32-1.83C371.25,802.94,370.83,802.64,370.46,802.39ZM336.34,830a30.2,30.2,0,1,1,30.2-30.2A30.2,30.2,0,0,1,336.34,830Z" transform="translate(84 71.1)"/><circle class="cls-5" cx="420.34" cy="870.87" r="26.51"/><path class="cls-3" d="M27.44,560.56c0-.19,0-.37,0-.53,0-.47,0-.87,0-1.14V558c0-.28,0-.67,0-1.14,0-.17,0-.35,0-.53l1-.68c.95-.69,1.87-1.48,1.87-1.48l-.06-.41-.16-.9c-.06-.33-.12-.66-.18-.9l-.09-.41-.71-.24c-.42-.14-1-.31-1.57-.46l-1.15-.29c-.05-.18-.1-.35-.16-.51-.15-.45-.28-.83-.37-1.08l-.16-.4-.16-.4c-.1-.26-.26-.62-.45-1.05l-.22-.49c.21-.3.43-.64.65-1s.63-1,.85-1.4l.36-.65-.21-.36c-.13-.22-.28-.51-.47-.79l-.5-.77c-.13-.21-.23-.35-.23-.35s-1.21,0-2.38.17l-1.18.15-.33-.42c-.61-.73-1-1.2-1-1.2l-.3-.31c-.2-.2-.45-.5-.8-.82l-.39-.37c.09-.35.18-.76.26-1.16.23-1.15.39-2.35.39-2.35l-.33-.26-.72-.57c-.26-.21-.54-.39-.74-.54l-.34-.24-.68.3c-.41.19-1,.45-1.47.72l-.76.4-.28.16-.47-.27-.56-.32-.44-.23-.39-.2-.39-.2-1-.47-.5-.2c0-.36-.11-.76-.18-1.17-.1-.59-.22-1.17-.32-1.6l-.17-.73-.4-.13c-.24-.08-.56-.17-.88-.26s-.64-.19-.89-.24l-.41-.09-.53.53c-.31.32-.72.74-1.11,1.2s-.54.63-.77.91l-.53-.09-1.14-.14-.32,0H2.68l-.43,0c-.28,0-.67-.06-1.14-.06H.56c-.17-.32-.38-.68-.59-1-.6-1-1.3-2-1.3-2h-.11l-.3,0-.91.07c-.33,0-.66.07-.91.1l-.41.05-.3.68c-.18.41-.4,1-.61,1.52-.15.39-.28.78-.39,1.12l-.52.11c-.46.11-.85.19-1.11.27l-.42.12-.42.12c-.27.07-.64.21-1.09.36l-.5.18-.92-.74c-.46-.36-1-.73-1.32-1l-.62-.42-.38.17c-.23.1-.53.24-.83.4l-.82.42-.27.14-.1.06s-.07,1.21-.05,2.38c0,.42,0,.83,0,1.19l-.45.29c-.39.27-.71.5-.94.66l-.35.26-.34.27c-.21.17-.54.41-.89.72l-.4.35c-.34-.12-.74-.25-1.13-.36-.56-.17-1.14-.32-1.58-.43l-.73-.17-.92,1-.88,1s.09.28.24.71.36,1,.58,1.53c.15.38.32.76.46,1.09l-.31.44c-.28.38-.49.72-.64,1l-.23.37-.06.1-.17.27-.57,1-.25.48-1.19.07c-.6,0-1.17.11-1.62.17l-.74.1-.17.38-.34.85c-.12.31-.24.62-.32.86l-.13.4.48.58c.28.34.68.79,1.09,1.22s.57.6.83.85c0,.18-.1.35-.13.52-.11.46-.2.85-.25,1.12l-.08.43-.08.43c0,.14-.06.3-.08.49L-27,555c0,.17,0,.35-.07.53l-.3.13-.78.36c-.53.26-1.06.53-1.46.74l-.48.26-.18.1,0,1.33,0,1.33.18.1.48.26c.4.21.93.49,1.46.74l.78.36.3.13c0,.19,0,.37.07.53l.08.64c0,.19.06.36.08.49l.08.43.08.43c.06.27.15.66.25,1.12,0,.16.08.34.13.52-.25.25-.54.55-.83.85s-.81.88-1.09,1.22l-.48.58.13.4c.08.24.2.55.32.86l.34.85.17.38.74.1c.45.06,1,.13,1.62.17l1.19.07.25.48.57,1,.17.27.06.1.23.37c.15.23.36.57.64,1l.31.44c-.15.33-.31.71-.46,1.09-.22.55-.43,1.11-.58,1.53s-.24.71-.24.71l.88,1,.92,1,.73-.17c.44-.11,1-.26,1.58-.43.39-.11.79-.25,1.13-.36l.4.35c.35.32.67.55.89.72l.34.27.35.26c.23.16.54.39.94.66l.45.29c0,.36,0,.77,0,1.19,0,1.17.05,2.38.05,2.38l.1.06.27.14.82.42c.29.16.6.29.83.4l.38.17.62-.42c.37-.25.85-.62,1.32-1l.92-.74.5.18c.45.15.82.29,1.09.36l.42.12.42.12c.26.08.65.16,1.11.27l.52.11c.11.34.25.72.39,1.12.21.55.43,1.11.61,1.52l.3.68.41.05c.25,0,.58.08.91.1l.91.07.3,0h.11s.7-1,1.3-2c.21-.35.42-.71.59-1H1.1c.47,0,.87,0,1.14-.06l.43,0h.11l.32,0,1.14-.14.53-.09c.23.28.49.59.77.91s.8.88,1.11,1.2l.53.53.41-.09c.24-.05.56-.15.89-.24s.64-.18.88-.26l.4-.13.17-.73c.1-.44.22-1,.32-1.6.07-.41.13-.82.18-1.17l.5-.2,1-.47.39-.2.39-.2.44-.23.56-.32.47-.27.28.16.76.4c.52.27,1.06.53,1.47.72l.68.3.34-.24c.2-.15.48-.33.74-.54l.72-.57.33-.26s-.16-1.21-.39-2.35c-.08-.41-.17-.81-.26-1.16l.39-.37c.35-.32.61-.62.8-.82l.3-.31s.42-.47,1-1.2l.33-.42,1.18.15c1.16.12,2.38.17,2.38.17s.1-.13.23-.35l.5-.77c.19-.28.34-.57.47-.79l.21-.36-.36-.65c-.23-.39-.53-.91-.85-1.4s-.45-.69-.65-1l.22-.49c.2-.43.36-.79.45-1.05l.16-.4.16-.4c.1-.26.22-.64.37-1.08.06-.16.11-.33.16-.51l1.15-.29c.57-.15,1.15-.32,1.57-.46l.71-.24.09-.41c.06-.24.12-.57.18-.9l.16-.9.06-.41s-.92-.78-1.87-1.48ZM0,581a22.55,22.55,0,0,1-22.55-22.55A22.55,22.55,0,0,1,0,535.9a22.55,22.55,0,0,1,22.55,22.55A22.55,22.55,0,0,1,0,581Z" transform="translate(84 71.1)"/></g></svg>