<?xml version="1.0" encoding="utf-8"?>
<!-- Generator: Adobe Illustrator 22.0.1, SVG Export Plug-In . SVG Version: 6.00 Build 0)  -->
<svg version="1.1" id="Camada_1" xmlns="http://www.w3.org/2000/svg" xmlns:xlink="http://www.w3.org/1999/xlink" x="0px" y="0px"
	 viewBox="0 0 50.7 53.4" style="enable-background:new 0 0 50.7 53.4;" xml:space="preserve">
<style type="text/css">
	.st0{fill:#44465B;}
	.st1{fill:#606481;}
	.st2{fill:#E5C397;}
	.st3{fill:#F5D7A6;}
	.st4{fill:#FCCF12;}
	.st5{opacity:0.59;fill:#E3CABC;}
	.st6{fill:#604B3B;}
	.st7{fill:#333333;}
	.st8{opacity:0.42;fill:#929292;}
	.st9{fill:#C9C9C9;}
	.st10{fill:#E5E5E5;}
	.st11{fill:#FFFFFF;}
	.st12{fill:#EB553F;}
	.st13{fill:#CE2E25;}
	.st14{clip-path:url(#SVGID_2_);}
</style>
<g>
	<g>
		<defs>
			<rect id="SVGID_1_" x="3" y="4.5" width="44.8" height="45"/>
		</defs>
		<clipPath id="SVGID_2_">
			<use xlink:href="#SVGID_1_"  style="overflow:visible;"/>
		</clipPath>
		<path class="st14" d="M38.3,32.4c-0.9-1-2-1.5-3.2-1.5c-1.2,0-2.3,0.5-3.2,1.5l-3,3c-0.2-0.1-0.5-0.3-0.7-0.4
			c-0.3-0.2-0.7-0.3-0.9-0.5c-2.8-1.8-5.3-4.1-7.8-7.1c-1.2-1.5-2-2.8-2.6-4c0.8-0.7,1.5-1.4,2.2-2.2c0.3-0.3,0.5-0.5,0.8-0.8
			c2-2,2-4.6,0-6.5l-2.6-2.6c-0.3-0.3-0.6-0.6-0.9-0.9c-0.6-0.6-1.2-1.2-1.8-1.8c-0.9-0.9-2-1.4-3.2-1.4c-1.2,0-2.3,0.5-3.2,1.4l0,0
			L5,11.9c-1.2,1.2-1.9,2.7-2.1,4.4c-0.2,2.8,0.6,5.3,1.2,7c1.5,4.1,3.8,8,7.2,12.1c4.1,4.9,9.1,8.8,14.8,11.6
			c2.2,1,5.1,2.2,8.3,2.5c0.2,0,0.4,0,0.6,0c2.2,0,4-0.8,5.5-2.3c0,0,0,0,0,0c0.5-0.6,1.1-1.1,1.7-1.7c0.4-0.4,0.8-0.8,1.2-1.2
			c0.9-1,1.4-2.1,1.4-3.3c0-1.2-0.5-2.3-1.5-3.2L38.3,32.4z M41.7,42.3C41.7,42.3,41.7,42.3,41.7,42.3c-0.4,0.4-0.7,0.8-1.2,1.2
			c-0.6,0.6-1.2,1.2-1.8,1.9c-1,1-2.1,1.5-3.6,1.5c-0.1,0-0.3,0-0.4,0c-2.8-0.2-5.4-1.3-7.4-2.2c-5.3-2.6-10-6.3-14-10.9
			c-3.2-3.9-5.4-7.5-6.8-11.3c-0.9-2.4-1.2-4.2-1.1-5.9c0.1-1.1,0.5-2,1.3-2.8l3.2-3.2c0.5-0.4,1-0.7,1.4-0.7c0.6,0,1.1,0.4,1.4,0.7
			l0,0c0.6,0.5,1.1,1.1,1.7,1.7c0.3,0.3,0.6,0.6,0.9,0.9l2.6,2.6c1,1,1,1.9,0,2.9c-0.3,0.3-0.5,0.5-0.8,0.8
			c-0.8,0.8-1.6,1.6-2.4,2.3c0,0,0,0,0,0c-0.8,0.8-0.7,1.6-0.5,2.1l0,0.1c0.7,1.6,1.6,3.2,3.1,5l0,0c2.6,3.2,5.4,5.7,8.4,7.6
			c0.4,0.2,0.8,0.4,1.2,0.6c0.3,0.2,0.7,0.3,0.9,0.5c0,0,0.1,0,0.1,0.1c0.3,0.2,0.6,0.2,0.9,0.2c0.8,0,1.3-0.5,1.4-0.7l3.2-3.2
			c0.3-0.3,0.8-0.7,1.4-0.7c0.6,0,1.1,0.4,1.4,0.7l5.2,5.2C42.7,40.3,42.7,41.3,41.7,42.3L41.7,42.3z M41.7,42.3"/>
		<path class="st14" d="M27.1,15.3c2.5,0.4,4.7,1.6,6.5,3.4c1.8,1.8,3,4,3.4,6.5c0.1,0.6,0.6,1.1,1.3,1.1c0.1,0,0.1,0,0.2,0
			c0.7-0.1,1.2-0.8,1-1.5c-0.5-3-1.9-5.7-4.1-7.9c-2.2-2.2-4.9-3.6-7.9-4.1c-0.7-0.1-1.4,0.3-1.5,1C26,14.5,26.4,15.2,27.1,15.3
			L27.1,15.3z M27.1,15.3"/>
		<path class="st14" d="M47.7,24.4c-0.8-4.9-3.2-9.4-6.7-13c-3.6-3.6-8.1-5.9-13-6.7c-0.7-0.1-1.3,0.3-1.5,1c-0.1,0.7,0.3,1.4,1,1.5
			c4.4,0.7,8.4,2.8,11.6,6c3.2,3.2,5.3,7.2,6,11.6c0.1,0.6,0.6,1.1,1.3,1.1c0.1,0,0.1,0,0.2,0C47.3,25.7,47.8,25.1,47.7,24.4
			L47.7,24.4z M47.7,24.4"/>
	</g>
</g>
</svg>
