<svg xmlns="http://www.w3.org/2000/svg" xmlns:xlink="http://www.w3.org/1999/xlink" viewBox="0 0 82.09 79.33"><defs><style>.cls-1{fill:url(#linear-gradient);}.cls-2{isolation:isolate;}.cls-3{fill:#3b4648;}.cls-4{fill:#566566;}.cls-16,.cls-5,.cls-8,.cls-9{fill:#1a2529;}.cls-23,.cls-28,.cls-5{opacity:0.5;}.cls-16,.cls-17,.cls-21,.cls-28,.cls-5,.cls-8{mix-blend-mode:multiply;}.cls-6{mask:url(#mask);}.cls-7{fill:#64abc5;opacity:0.7;}.cls-8{opacity:0;}.cls-21,.cls-24,.cls-9{opacity:0.4;}.cls-10{fill:#edc732;}.cls-11{fill:#c58429;}.cls-12{fill:url(#linear-gradient-2);}.cls-13{fill:url(#linear-gradient-3);}.cls-14{fill:#f1cb42;}.cls-15{fill:#c28024;}.cls-16,.cls-17{opacity:0.2;}.cls-17{fill:url(#radial-gradient);}.cls-18{fill:#901c14;}.cls-19{fill:#c9c8c9;}.cls-20{fill:#b6bec6;}.cls-21,.cls-26{fill:#93a1ac;}.cls-22{fill:#f9ffff;}.cls-23{fill:#b4bec3;}.cls-24{fill:#83c5d0;mix-blend-mode:darken;}.cls-25{fill:#fff;}.cls-27{fill:#b22419;}.cls-28,.cls-33{fill:#9c2316;}.cls-29{fill:#ca8926;}.cls-30{fill:#f2cf4f;}.cls-31{fill:#cf8c26;}.cls-32{fill:#a3260f;}.cls-34{fill:#b4220e;}.cls-35{fill:#dc3c1c;}</style><linearGradient id="linear-gradient" x1="67.33" y1="36.74" x2="54.37" y2="36.74" gradientUnits="userSpaceOnUse"><stop offset="0" stop-color="#fff"/><stop offset="0.11" stop-color="#dadada"/><stop offset="0.36" stop-color="#8d8d8d"/><stop offset="0.58" stop-color="#515151"/><stop offset="0.77" stop-color="#252525"/><stop offset="0.91" stop-color="#0a0a0a"/><stop offset="1"/></linearGradient><mask id="mask" x="38.81" y="18.28" width="39.75" height="36.92" maskUnits="userSpaceOnUse"><rect class="cls-1" x="38.81" y="18.28" width="39.75" height="36.92"/></mask><linearGradient id="linear-gradient-2" x1="20.14" y1="39.57" x2="21.35" y2="39.57" gradientUnits="userSpaceOnUse"><stop offset="0" stop-color="#faf139"/><stop offset="1" stop-color="#df922f"/></linearGradient><linearGradient id="linear-gradient-3" x1="739.42" y1="409.48" x2="759.7" y2="411.74" gradientTransform="translate(-647.25 -319.61) scale(0.89)" gradientUnits="userSpaceOnUse"><stop offset="0" stop-color="#faf139"/><stop offset="0" stop-color="#faf139"/><stop offset="0.46" stop-color="#ebbe34"/><stop offset="0.81" stop-color="#e29e30"/><stop offset="1" stop-color="#df922f"/></linearGradient><radialGradient id="radial-gradient" cx="40.3" cy="76.93" r="21.31" gradientUnits="userSpaceOnUse"><stop offset="0" stop-color="#272425"/><stop offset="0.22" stop-color="#535051"/><stop offset="1" stop-color="#fff"/></radialGradient></defs><title>Sem título-1</title><g class="cls-2"><g id="Camada_1" data-name="Camada 1"><path class="cls-3" d="M62.38,38.18c0,1.51-11.34,9.62-22.84,9.71-11.68.1-23.47-7.83-23.47-9.7v7.05c0,1.87,7.8,8.59,23.47,8.59,14.9,0,22.89-7.09,22.84-8.59Z"/><polygon class="cls-3" points="62.38 38.23 62.38 38.22 62.38 38.24 62.38 38.23"/><path class="cls-4" d="M62.37,38c-.39-4.6-10.6-8.28-23.14-8.28S16.46,33.37,16.08,38c0,.08,0,.17,0,.26,0,4.68,10.2,9.6,22.85,9.66h.79c12.56-.1,22.66-5,22.67-9.65v0C62.38,38.14,62.37,38.05,62.37,38Z"/><path class="cls-3" d="M61.17,18.6l-21.94,12-21.95-12,0,19.26c0,1.77,6.84,8.34,22.21,8.34,16.52,0,21.65-6.91,21.6-8.34Z"/><path class="cls-5" d="M17.31,33.71c0-2.42,3.71-2.58,8.79-.3,8.47,3.8,18.19,12.77,25.18,11.32,6.58-1.89,9.31-5.11,9.78-6.47,0-.3,0-.55.07-.73l0-8.82c-.32,0-8.94-.27-17.48-.55l-4.44,2.43-5-2.76c-4.43-.16-7.58-.29-7.53-.35s-8.83-1.67-8.83-1.67l-.52.32Z"/><g class="cls-6"><polygon class="cls-7" points="61.16 35.4 61.16 28.32 54.12 31.37 54.49 43.96 60.75 38.61 61.16 35.4"/></g><path class="cls-8" d="M27.66,40.4a35,35,0,0,0,11.56,1.92c13.46,0,21.91-5,21.91-8.82l0-13.4L39.23,17.91,17.28,19.46l0,11.58c0,3.15,3.47,6.56,8.87,8.8Z"/><polygon class="cls-3" points="63.08 18.34 39.21 7.61 15.53 18.34 4.18 20.56 4.18 22.9 4.18 22.9 39.21 38.46 74.55 22.9 74.55 22.9 74.55 20.56 63.08 18.34"/><polygon class="cls-4" points="39.21 4.67 4.18 20.56 39.21 36.12 74.55 20.56 39.21 4.67"/><path class="cls-9" d="M39.72,18.54s-15.92,4.73-18.34,9a6.11,6.11,0,0,0-.53,2.1l1.39.8a9,9,0,0,1,.25-2.29c2.41-4.23,18.61-9.1,18.61-9.1Z"/><path class="cls-5" d="M42.44,18.77c0,.82-1.39,1.49-3.11,1.49s-3.11-.67-3.11-1.49,1.39-1.49,3.11-1.49S42.44,18,42.44,18.77Z"/><path class="cls-10" d="M39.18,18S23.26,22.7,20.84,27c-1,1.83-.62,8.88-.62,8.88l1.26-.19S21,29.22,22,27.57c2.41-4.22,18.26-8.82,18.26-8.82Z"/><path class="cls-11" d="M37.11,19.46,38,19.2a5.66,5.66,0,0,0-.49-.48c-.07,0-.4.13-.4.13l-.18.07C37.12,18.89,37.32,19.38,37.11,19.46Z"/><path class="cls-3" d="M42.23,18c0,.76-1.3,1.38-2.9,1.38s-2.9-.62-2.9-1.38,1.3-1.39,2.9-1.39S42.23,17.25,42.23,18Z"/><rect class="cls-12" x="20.14" y="37.62" width="1.21" height="3.9"/><path class="cls-13" d="M24.91,51.3a65.82,65.82,0,0,0-1.25-8.17c-.62-2.8-1.3-5.34-3-5.34-3.88,0-4.33,12.45-4.25,13.51a2.14,2.14,0,0,0,1.26,1.76,3.8,3.8,0,0,0,.9.32,8.57,8.57,0,0,0,2.09.22,6.23,6.23,0,0,0,1.09-.06c.44-.07.64-.09.88-.14C24.4,53,24.91,52,24.91,51.3Z"/><path class="cls-14" d="M21.06,37.84a1.5,1.5,0,0,0-.37-.05c-.19.11-.44.28-.77.49C17.36,40,16.67,48.81,16.65,52.12a2.61,2.61,0,0,0,1,.94,3.8,3.8,0,0,0,.9.32,7.64,7.64,0,0,0,.8.15c.06-5.61.76-14.3,1.17-15.19C20.54,38.34,20.84,38.07,21.06,37.84Z"/><path class="cls-15" d="M24.11,52.74a1.84,1.84,0,0,0,.8-1.44c0-.92-.37-13.51-4.25-13.51a2,2,0,0,0-1.42.65c-.22.32,1.7.44,2.29,1.32,1.4,2.1,2.59,6.05,2.59,12.88C24.12,52.68,24.11,52.71,24.11,52.74Z"/><path class="cls-16" d="M65.44,57.5c-2.81,1-5.2,1.92-7.57,3-1.26-3.13-9.38-5.54-19.23-5.54-10.71,0-19.4,2.86-19.4,6.39s8.45,6.31,19,6.39c-3.23.52-5.55,1.57-5.55,2.75,0,1.45,1.75,3.24,4.14,3.83a8.49,8.49,0,0,0,5.61-.12c5.44-1.81,29-11.8,30.46-12.66C74.56,60.51,67.7,56.72,65.44,57.5Z"/><path class="cls-17" d="M65.36,57.79a47.46,47.46,0,0,0-7.49,2.66c-1.26-3.13-9.38-5.54-19.23-5.54-10.71,0-19.4,2.86-19.4,6.39s8.45,6.31,19,6.39c-3.23.52-5.55,1.57-5.55,2.75,0,1.45,1.75,3.24,4.14,3.83a8.49,8.49,0,0,0,5.61-.12c5.44-1.81,29-11.8,30.46-12.66C74.56,60.51,67.55,57.23,65.36,57.79Z"/><path class="cls-18" d="M56.61,49.54c2.72,3.66,3.23,7.87,1.15,9.42s-6-.17-8.68-3.83-3.23-7.87-1.15-9.42S53.9,45.88,56.61,49.54Z"/><path class="cls-19" d="M67.56,29.44h0c1.85-1.53,5.39-.36,8,2.63,2.4,2.81,3.07,6.24,1.64,8L41.05,72.89,31.39,62.24Z"/><path class="cls-20" d="M33,70.36a10.73,10.73,0,0,1-2.52-4c-.12-.52,1.08-1.14.85-1.58a2.39,2.39,0,0,1,.35-2.71c1.83-1.57,5.4-.41,8,2.6S42.8,71.39,41,73,35.56,73.37,33,70.36Z"/><path class="cls-21" d="M57.25,42.11h0c1.24-1,3.63-.24,5.35,1.77s2.08,4.2,1.12,5.36l0,0L39.38,71.39s1.27-2.26-1.15-5.16c-2.2-2.63-4.55-1.84-4.55-1.84Z"/><path class="cls-21" d="M37.7,65.85c-.36-.41-2.54,2.05-2.85,1.64-1.18-1.57-1.63-2.25-.65-3.09,1.24-1.06,2.3-.2,4,1.83s2.34,4.16,1.1,5.21c-.54.46.5-.42.47-1.42C39.76,68.72,38.68,67,37.7,65.85Z"/><path class="cls-22" d="M39.64,64.68c-2.57-3-6.14-4.17-8-2.6a2.39,2.39,0,0,0-.23.22l-.05-.06,36.17-32.8h0c1.85-1.53,5.39-.36,8,2.63,2.4,2.81,3.07,6.24,1.64,8L41.32,73.1l-.27-.21C42.78,71.28,42.17,67.64,39.64,64.68Z"/><path class="cls-23" d="M61,51s2,1.12,2,1.09L77.89,37.91a8.69,8.69,0,0,0-2.38-5.84c-.19-.22-.38-.43-.58-.64L60.2,44.6l.21-.83-1.25.13c0-.32,0-.48,0-.8l-1.19.29-.27-.72-1.09.45-.47-.61-1,.56-.64-.48-.78.64L53,42.9l-.61.7-.85-.2-.42.73-.91-.05-.22.73L49,44.9l0,.71-.92.23.15.66-.88.36c.13.24.19.36.33.6l-.81.47c.2.21.3.31.51.5l-.73.6a7.51,7.51,0,0,0,.68.39l-.61.7a8,8,0,0,0,.82.25l-.46.77c.37,0,.57.06,1,.08l-.3.85,1-.09c0,.37-.07.55-.12.91l1.09-.24c0,.37,0,.56.08.92l.53-.19L39,63.57,40.55,65l1.6,5.84,17.9-16.29c.14,0-.53-2.08-.34-2.09,0-.16,0-.3,0-.43l1.13-1Z"/><path class="cls-24" d="M77.16,40a3.4,3.4,0,0,0,.74-2.12h0L63.52,51.55l-5.38,4.7L42.7,70.32,41.17,73l.15.12Z"/><path class="cls-25" d="M40.13,74a3.7,3.7,0,0,0,2.29-2.23c.73-1.9.12-4.43-1.62-6.78-3.22-4.33-6.47-4.79-8.44-3.79A2.66,2.66,0,0,0,31,62.81c-.5,1.71.77,3.91,1.45,5.09l.1.17c.88,1.53,4.37,4.52,6.34,3.73a2.12,2.12,0,0,0,1.27-1.23c.44-1.21-.35-2.71-.77-3.52l-.06-.12c-.58-1.11-3.4-3.91-5-3.12a1.58,1.58,0,0,0-.9,1.16,3.8,3.8,0,0,0,1.14,2.83.45.45,0,1,0,.64-.62,3,3,0,0,1-.9-2.06.68.68,0,0,1,.41-.51c.85-.42,3.31,1.72,3.83,2.73l.07.12c.33.64,1,2,.72,2.81a1.29,1.29,0,0,1-.78.71c-1.23.5-4.37-1.84-5.23-3.35l-.1-.17c-.62-1.07-1.76-3.06-1.37-4.4a1.75,1.75,0,0,1,1-1.06c1.57-.8,4.42-.36,7.32,3.53,1.56,2.1,2.12,4.32,1.5,5.93a2.86,2.86,0,0,1-2.2,1.84c-2.3.46-6.75-2.06-8.5-7.07a.44.44,0,0,0-.56-.28.45.45,0,0,0-.27.57c1.92,5.54,6.84,8.19,9.51,7.65A3.58,3.58,0,0,0,40.13,74Z"/><path class="cls-26" d="M56.51,49.24c-2-2.34-4.54-3.71-6.62-3.78L47.8,47.35a.89.89,0,0,0,.29-.15c1.61-1.21,5.36.41,7.51,2.93C58,53,58.87,56.29,57.3,58.36l1.87-1.72C59.54,54.54,58.6,51.69,56.51,49.24Z"/><path class="cls-18" d="M56.88,48.87c-2.94-3.43-7-4.77-9.12-3l-.33.34-.29.59.1.28c.56-.47.59.23,1.22-.24,1.61-1.21,5.36.41,7.51,2.93,2.49,2.92,3.32,6.35,1.56,8.4-.16.19.31.55.15.74,0,0,.13,0,.17,0a10.36,10.36,0,0,0,.92-.89C60.41,56,59.63,52.1,56.88,48.87Z"/><path class="cls-27" d="M60.82,45.35c-2.93-3.43-7-4.77-9.12-3v0L47.83,45.8c2.15-1.61,6.15-.27,9,3.1s3.53,7.16,1.89,9.13l4-3.55C64.35,52.51,63.58,48.58,60.82,45.35Z"/><path class="cls-28" d="M60.82,45.35l-.06-.07a8.71,8.71,0,0,0-1.85.16c-.07.11-2,1.61-3,2.46.32.31.64.64,1,1a10.89,10.89,0,0,1,2.72,6l4-3.66A10.89,10.89,0,0,0,60.82,45.35Z"/><g class="cls-2"><polygon class="cls-29" points="65.73 46.21 65.59 47.05 56.23 47.47 55.95 46.65 65.73 46.21"/><polygon class="cls-30" points="63.67 43.42 65.73 46.21 55.95 46.65 58.6 43.56 63.67 43.42"/></g><g class="cls-2"><polygon class="cls-29" points="56.42 51.76 56.71 52.58 51.67 49.72 51.39 48.9 56.42 51.76"/><polygon class="cls-29" points="62.29 50.22 62.57 51.04 56.71 52.58 56.42 51.76 62.29 50.22"/><polygon class="cls-30" points="55.87 46.74 62.29 50.22 56.42 51.76 51.39 48.9 55.87 46.74"/></g><polygon class="cls-31" points="57.46 50.74 57.74 50.04 58.78 49.92 58.84 49.25 59.9 48.99 59.88 48.91 55.87 46.74 51.39 48.9 55.7 51.35 55.99 51.41 56.47 50.72 57.46 50.74"/><polygon class="cls-32" points="57.71 39.9 58.27 41.54 58.43 42.16 57.86 40.52 57.71 39.9"/><polygon class="cls-33" points="47.27 44.57 47.84 46.21 47.46 45.68 46.9 44.03 47.27 44.57"/><polygon class="cls-33" points="58.92 40.25 59.49 41.9 59.42 42.57 58.86 40.93 58.92 40.25"/><polygon class="cls-33" points="46.89 45.5 47.46 47.14 46.89 46.71 46.32 45.07 46.89 45.5"/><polygon class="cls-33" points="59.9 40.8 60.47 42.45 60.19 43.14 59.62 41.5 59.9 40.8"/><polygon class="cls-33" points="46.81 46.4 47.38 48.04 46.63 47.74 46.06 46.1 46.81 46.4"/><polygon class="cls-33" points="60.61 41.52 61.17 43.17 60.68 43.86 60.12 42.22 60.61 41.52"/><polygon class="cls-33" points="47.02 47.23 47.59 48.87 46.7 48.7 46.13 47.06 47.02 47.23"/><polygon class="cls-33" points="61 42.38 61.57 44.03 60.89 44.69 60.33 43.04 61 42.38"/><polygon class="cls-33" points="47.52 47.94 48.08 49.58 47.1 49.56 46.53 47.92 47.52 47.94"/><polygon class="cls-33" points="61.07 43.35 61.64 44.99 60.81 45.58 60.24 43.94 61.07 43.35"/><polygon class="cls-33" points="48.28 48.52 48.84 50.16 47.8 50.28 47.23 48.64 48.28 48.52"/><polygon class="cls-33" points="60.81 44.37 61.38 46.01 60.43 46.52 59.87 44.87 60.81 44.37"/><polygon class="cls-33" points="49.27 48.93 49.84 50.57 48.78 50.83 48.21 49.19 49.27 48.93"/><polygon class="cls-34" points="60.24 45.41 60.81 47.05 59.78 47.44 59.21 45.8 60.24 45.41"/><polygon class="cls-34" points="50.45 49.15 51.02 50.79 49.99 51.19 49.43 49.55 50.45 49.15"/><polygon class="cls-33" points="59.21 45.8 59.78 47.44 59.94 48.06 59.38 46.42 59.21 45.8"/><polygon class="cls-34" points="59.38 46.42 59.94 48.06 58.88 48.32 58.32 46.68 59.38 46.42"/><polygon class="cls-34" points="51.77 49.18 52.33 50.83 51.39 51.33 50.82 49.69 51.77 49.18"/><polygon class="cls-33" points="50.82 49.69 51.39 51.33 51.02 50.79 50.45 49.15 50.82 49.69"/><polygon class="cls-33" points="58.26 47.35 58.82 48.99 57.78 49.11 57.21 47.47 58.26 47.35"/><polygon class="cls-34" points="58.32 46.68 58.88 48.32 58.82 48.99 58.26 47.35 58.32 46.68"/><polygon class="cls-34" points="53.16 49.02 53.73 50.66 52.9 51.26 52.34 49.62 53.16 49.02"/><polygon class="cls-33" points="52.34 49.62 52.9 51.26 52.33 50.83 51.77 49.18 52.34 49.62"/><polygon class="cls-33" points="56.93 48.17 57.5 49.81 56.51 49.79 55.95 48.15 56.93 48.17"/><polygon class="cls-34" points="57.21 47.47 57.78 49.11 57.5 49.81 56.93 48.17 57.21 47.47"/><polygon class="cls-34" points="54.58 48.67 55.14 50.31 54.47 50.97 53.91 49.33 54.58 48.67"/><polygon class="cls-33" points="53.91 49.33 54.47 50.97 53.73 50.66 53.16 49.02 53.91 49.33"/><polygon class="cls-33" points="55.46 48.84 56.03 50.48 55.14 50.31 54.58 48.67 55.46 48.84"/><path class="cls-35" d="M59.21,45.8l.16.62-1,.26-.07.67-1,.12-.28.7-1,0-.48.7-.88-.17-.67.66L53.16,49l-.82.59-.57-.43-1,.51-.37-.54-1,.39-.16-.61-1.06.26.07-.67-1.05.12.29-.7-1,0,.49-.69-.89-.17.68-.66-.75-.31.83-.59-.57-.43,1-.5L46.89,44l1-.39L47.76,43l1.06-.26.06-.67,1-.12.28-.7,1,0,.49-.7.88.17.67-.66.74.31.83-.59.57.43.94-.51.37.54,1-.39.15.62,1.06-.27-.06.68,1-.13-.28.7,1,0-.5.7.89.16-.67.66.74.31-.83.59.57.43-1,.5.38.54Zm-8.88,2.69"/><polygon class="cls-34" points="55.95 48.15 56.51 49.79 56.03 50.48 55.46 48.84 55.95 48.15"/></g></g></svg>