<?xml version="1.0" encoding="utf-8"?>
<!-- Generator: Adobe Illustrator 22.0.1, SVG Export Plug-In . SVG Version: 6.00 Build 0)  -->
<svg version="1.1" id="Camada_1" xmlns="http://www.w3.org/2000/svg" xmlns:xlink="http://www.w3.org/1999/xlink" x="0px" y="0px"
	 viewBox="0 0 50.7 53.4" style="enable-background:new 0 0 50.7 53.4;" xml:space="preserve">
<style type="text/css">
	.st0{fill:#44465B;}
	.st1{fill:#606481;}
	.st2{fill:#E5C397;}
	.st3{fill:#F5D7A6;}
	.st4{fill:#FCCF12;}
	.st5{opacity:0.59;fill:#E3CABC;}
	.st6{fill:#604B3B;}
	.st7{fill:#333333;}
	.st8{opacity:0.42;fill:#929292;}
	.st9{fill:#C9C9C9;}
	.st10{fill:#E5E5E5;}
	.st11{fill:#FFFFFF;}
	.st12{fill:#EB553F;}
	.st13{fill:#CE2E25;}
	.st14{clip-path:url(#SVGID_2_);}
</style>
<g>
	<path d="M25.3,4.5C12.9,4.5,2.8,14.6,2.8,27c0,12.3,9.9,22.6,22.4,22.6c12.4,0,22.6-10.2,22.6-22.6C47.8,14.5,37.5,4.5,25.3,4.5z
		 M25.3,46.9c-10.9,0-19.8-9-19.8-20C5.5,16,14.4,7.2,25.3,7.2c11,0,20,8.9,20,19.8C45.2,38,36.3,46.9,25.3,46.9z"/>
	<path d="M25.3,12.5c-8,0-14.5,6.5-14.5,14.5c0,8,6.5,14.7,14.5,14.7c3.2,0,6.5-1.1,9-3c0.6-0.4,0.7-1.3,0.2-1.8
		c-0.4-0.6-1.3-0.7-1.8-0.2c-2,1.6-4.7,2.5-7.4,2.5c-6.5,0-11.9-5.4-11.9-12.1c0-6.5,5.3-11.9,11.9-11.9c6.6,0,12,5.3,12,11.9v1.3
		c0,1.5-1.2,2.6-2.6,2.6c-1.5,0-2.6-1.2-2.6-2.6c0-0.7,0-5.9,0-6.6c0-0.7-0.6-1.3-1.3-1.3c-0.7,0-1.3,0.6-1.3,1.3v0.1
		c-1.2-0.9-2.6-1.4-4.1-1.4c-3.6,0-6.6,3-6.6,6.6c0,3.6,3,6.6,6.6,6.6c2,0,3.8-0.8,5.1-2.3c1,1.4,2.5,2.3,4.3,2.3
		c2.9,0,5.3-2.4,5.3-5.3V27C39.9,18.9,33.3,12.5,25.3,12.5z M25.3,30.9c-2.2,0-4-1.8-4-4s1.8-4,4-4c2.2,0,4.1,1.8,4.1,4
		S27.5,30.9,25.3,30.9z"/>
</g>
</svg>
