<?xml version="1.0" encoding="utf-8"?>
<!-- Generator: Adobe Illustrator 22.0.1, SVG Export Plug-In . SVG Version: 6.00 Build 0)  -->
<svg version="1.1" id="Camada_1" xmlns="http://www.w3.org/2000/svg" xmlns:xlink="http://www.w3.org/1999/xlink" x="0px" y="0px"
	 viewBox="0 0 50.7 67.4" style="enable-background:new 0 0 50.7 67.4;" xml:space="preserve">
<style type="text/css">
	.st0{fill:#44465B;}
	.st1{fill:#606481;}
	.st2{fill:#E5C397;}
	.st3{fill:#F5D7A6;}
	.st4{fill:#FCCF12;}
	.st5{opacity:0.59;fill:#E3CABC;}
	.st6{fill:#604B3B;}
	.st7{fill:#333333;}
	.st8{opacity:0.42;fill:#929292;}
	.st9{fill:#C9C9C9;}
	.st10{fill:#E5E5E5;}
	.st11{fill:#FFFFFF;}
	.st12{fill:#EB553F;}
	.st13{fill:#CE2E25;}
	.st14{clip-path:url(#SVGID_2_);}
</style>
<g>
	<path class="st0" d="M20.9,58.7c-0.1-0.2-0.1-0.3-0.2-0.5c-0.4-1.2-0.8-2.3-1.2-3.2l-0.1-0.5c-1.4-1.4-2.9-2.8-4.4-4
		c-2-1.7-3.9-3.4-5.2-5.6L9.5,45l-4.4,1.6l-3.4,1.2c0,0,0,0-0.1,0c0,0,0,0,0,0v18.6h21.6C22.5,63.7,21.7,61,20.9,58.7z M3.7,47.1
		L3.7,47.1L3.7,47.1C3.7,47.1,3.7,47.1,3.7,47.1z"/>
	<path class="st1" d="M23.3,66.4h-4.3c-1.3-1.3-2.7-2.5-4-3.6c-2-1.7-3.9-3.4-5.2-5.6c-0.5-0.7-0.8-1.5-1.2-2.4
		c1.3-2.1,3.1-3.6,5.1-5c-1.9-0.1-3.9,0-5.8,0c-0.1-1.5,0.5-3.3,1.6-4.8c1.5-2.1,4.2-3.8,7.9-3.7v5.5l1,3.9l1,3.7l0.1,0.5
		c0.4,0.9,0.7,2,1.2,3.2c0.1,0.2,0.1,0.3,0.2,0.5c0.4,1.2,0.8,2.5,1.2,3.8c0.4,1.2,0.7,2.4,1.1,3.7C23.2,66.3,23.2,66.3,23.3,66.4z"
		/>
	<path class="st0" d="M27.4,66.4h21.6V47.8c0,0,0,0,0,0c0,0,0,0-0.1,0l-3.4-1.2L41.2,45l-0.4-0.2c-1.3,2.1-3.1,3.9-5.2,5.6
		c-1.5,1.3-3.1,2.6-4.4,4l-0.1,0.5c-0.4,0.9-0.7,2-1.2,3.2c-0.1,0.2-0.1,0.3-0.2,0.5C29,61,28.2,63.7,27.4,66.4z M47,47.1L47,47.1
		L47,47.1C47,47.1,47,47.1,47,47.1z"/>
	<path class="st1" d="M42.1,54.8c-0.3,0.9-0.7,1.6-1.2,2.4c-1.3,2.1-3.1,3.9-5.2,5.6c-1.4,1.2-2.8,2.3-4,3.6h-4.3
		c0.1-0.3,0.2-0.5,0.2-0.8c0.3-0.9,0.5-1.8,0.8-2.7c0-0.1,0.1-0.3,0.1-0.5c0.4-1.3,0.8-2.6,1.2-3.8c0.1-0.2,0.1-0.3,0.2-0.5
		c0.4-1.2,0.8-2.3,1.2-3.2l0.1-0.5l1-3.7l1-3.9v-5.5c3.8-0.1,6.4,1.6,7.9,3.7c1.1,1.5,1.7,3.3,1.6,4.8c-1.9,0-3.9-0.1-5.8,0
		C39,51.2,40.8,52.7,42.1,54.8z"/>
	<path class="st2" d="M13.6,32.5c-0.4,0.1-0.7,0-1.1-0.2c-1-0.6-1.8-2.1-2.1-3.9c-0.4-2.5,0.4-4.8,1.8-5c0.1,0,0.3,0,0.4,0
		c0.1,0,0.1,0,0.2,0c0.3,0.1,0.6,0.2,0.8,0.5c0.8,0.7,1.5,2,1.7,3.7C15.7,30,14.9,32.3,13.6,32.5z"/>
	<path class="st2" d="M40.3,28.4c-0.3,2.1-1.3,3.7-2.4,4.1c-0.2,0.1-0.5,0.1-0.7,0.1c-1.3-0.2-2.1-2.5-1.7-5
		c0.2-1.5,0.8-2.8,1.6-3.5c0.3-0.3,0.6-0.5,0.8-0.6c0.2-0.1,0.5-0.1,0.7-0.1c0,0,0,0,0,0C39.9,23.7,40.6,25.9,40.3,28.4z"/>
	<path class="st2" d="M33.3,40.4v6.4l-1,3.9H18.4l-1-3.9v-6.4c2.2,2.2,5,3.4,7.9,3.4C28.3,43.9,31.1,42.6,33.3,40.4z"/>
	<path class="st3" d="M38.5,28.2c0,5.5-2,10.4-5.2,13.5c-2.2,2.2-5,3.5-7.9,3.5c-3,0-5.7-1.3-7.9-3.4c-3.1-3.1-5.2-8-5.2-13.5
		c0-9.4,5.9-16.9,13.1-16.9C32.6,11.2,38.5,18.8,38.5,28.2z"/>
	<path class="st4" d="M43.8,13.3c0,6.8-8.3,12.3-18.5,12.3S6.9,20.1,6.9,13.3C6.9,6.5,15.1,1,25.3,1S43.8,6.5,43.8,13.3z"/>
	<path class="st5" d="M41.6,15.7c0,2.2-1,4.2-2.6,5.9c-3.4,2.4-8.2,3.9-13.6,3.9c-5.4,0-10.2-1.5-13.6-4c-1.7-1.7-2.6-3.7-2.6-5.9
		C9.1,9.8,16.4,5,25.3,5C34.3,5,41.6,9.8,41.6,15.7z"/>
	<path class="st6" d="M15.3,23.9c-0.7,1.1-1.5,1.9-3,2.4c0.1-1.5,0.4-2.9,0.8-4.2C13.6,22.8,14.3,23.4,15.3,23.9z"/>
	<path class="st6" d="M38.4,26.5c-0.6-0.1-1.1-0.4-1.5-1c-3.6,1.1-8.2,1.1-10.9,0.6c3.4-0.1,6.5-0.8,8.7-1.8
		c1.3-0.6,2.3-1.4,2.9-2.2c0.3,0.9,0.5,1.9,0.6,2.9C38.3,25.5,38.3,26,38.4,26.5z"/>
	<path class="st7" d="M38.3,20.5c0,1.6-1.4,3-3.6,4.1c-2.4,1.1-5.7,1.8-9.4,1.8c-3.7,0-7-0.7-9.4-1.8c-2.2-1.1-3.6-2.5-3.6-4.1
		c0-0.1,0-0.1,0-0.2c1.5,0.9,3.5,1.5,5.6,2c0,0,0,0,0.1,0c2.2,0.5,4.7,0.7,7.3,0.7c2.6,0,5.1-0.3,7.3-0.7c0,0,0,0,0.1,0
		c2.2-0.5,4.1-1.2,5.6-2C38.3,20.4,38.3,20.5,38.3,20.5z"/>
	<path class="st8" d="M40.2,25.4c-0.5,0.3-1.1,0.7-1.7,1l0,0c-0.9,0.4-1.9,0.8-3,1.1c-2.9,0.9-6.3,1.4-10.1,1.4
		c-3.7,0-7.2-0.5-10.1-1.4c-1.1-0.3-2.1-0.7-3-1.1c0,0,0,0,0,0c-0.6-0.3-1.2-0.6-1.7-1c0.3-1.1,0.9-1.8,1.6-2c0.1,0,0.3,0,0.4,0
		c0.1,0,0.2,0,0.2,0c0.1-0.3,0.1-0.5,0.2-0.8c0.1,0,0.2,0.1,0.3,0.1c0.6,0.7,1.6,1.4,2.7,2c2.4,1.1,5.7,1.8,9.4,1.8
		c3.7,0,7-0.7,9.4-1.8c1.2-0.6,2.1-1.2,2.7-2c0.1,0,0.2,0,0.3-0.1c0.1,0.3,0.1,0.5,0.2,0.8c0.2-0.1,0.4-0.1,0.6,0c0,0,0,0,0,0
		C39.3,23.5,39.9,24.3,40.2,25.4z"/>
	<path class="st9" d="M38.3,17.5v3c0-0.1,0-0.1,0-0.2c-1.5,0.9-3.5,1.5-5.6,2c0,0,0,0-0.1,0c-2.2,0.5-4.7,0.7-7.3,0.7
		c-2.6,0-5.1-0.3-7.3-0.7c0,0,0,0-0.1,0c-2.2-0.5-4.1-1.2-5.6-2c0,0.1,0,0.1,0,0.2v-3c0-3.3,5.8-5.9,13-5.9
		C32.5,11.6,38.3,14.2,38.3,17.5z"/>
	<path class="st8" d="M38.3,17.4v1.4c-2.5-2.1-7.3-3.5-12.9-3.5c-5.7,0-10.6,1.5-13,3.6v-1.5c0-3.3,5.8-5.9,13-5.9
		C32.5,11.5,38.3,14.2,38.3,17.4z"/>
	<path class="st10" d="M33.3,44.8v2l-1,3.9l-1,3.7l-0.1,0.5c-0.4,0.9-0.7,2-1.2,3.2c-0.1,0.2-0.1,0.3-0.2,0.5
		c-0.8,2.3-1.6,5-2.4,7.8h-4.1c-0.7-2.7-1.6-5.4-2.4-7.8c-0.1-0.2-0.1-0.3-0.2-0.5c-0.4-1.2-0.8-2.3-1.2-3.2l-0.1-0.5l-1-3.7l-1-3.9
		v-2l7.9,3.8L33.3,44.8z"/>
	<polygon class="st11" points="33.3,44.8 33.3,46.8 32.5,49.8 32.2,50.7 31.9,52 27.4,55 27.2,54.2 26,50.7 25.4,48.8 25.3,48.7 
		25.3,48.6 	"/>
	<polygon class="st11" points="25.3,48.7 24.7,50.7 23.5,54.2 23.3,55 18.9,52.3 18.4,50.7 17.4,46.8 17.4,44.8 25.3,48.6 	"/>
	<path class="st12" d="M28.6,62.4c0,0.1-0.1,0.3-0.1,0.5c-0.3,0.9-0.5,1.8-0.8,2.7c-0.1,0.3-0.2,0.5-0.2,0.8h-4.1
		c0-0.1,0-0.1-0.1-0.2c-0.3-1.3-0.7-2.5-1.1-3.7l0.1-0.3l1.8-7.7c0,0,0,0,0.1,0c0.8,0.3,1.9,0.3,2.6,0L28.6,62.4z"/>
	<path class="st13" d="M27.2,54.2c-0.1,0.1-0.2,0.2-0.3,0.2c0,0-0.1,0.1-0.2,0.1c-0.8,0.4-1.9,0.4-2.6,0c0,0-0.1,0-0.1,0
		c-0.2-0.1-0.3-0.2-0.5-0.3l1.1-3.5l0.7-2l0,0.1l0.6,1.9L27.2,54.2z"/>
	<polygon class="st8" points="25.3,48.7 24.7,57.6 19.2,53.6 18.9,52.3 23.3,55 23.5,54.2 24.7,50.7 	"/>
	<polygon class="st8" points="31.9,52 31.5,53.5 25.9,57.6 25.3,48.7 25.4,48.8 26,50.7 27.2,54.2 27.4,55 	"/>
</g>
</svg>
