<?xml version="1.0" encoding="utf-8"?>
<!-- Generator: Adobe Illustrator 22.0.1, SVG Export Plug-In . SVG Version: 6.00 Build 0)  -->
<svg version="1.1" id="Camada_1" xmlns="http://www.w3.org/2000/svg" xmlns:xlink="http://www.w3.org/1999/xlink" x="0px" y="0px"
	 viewBox="0 0 50.7 53.4" style="enable-background:new 0 0 50.7 53.4;" xml:space="preserve">
<style type="text/css">
	.st0{fill:#44465B;}
	.st1{fill:#606481;}
	.st2{fill:#E5C397;}
	.st3{fill:#F5D7A6;}
	.st4{fill:#FCCF12;}
	.st5{opacity:0.59;fill:#E3CABC;}
	.st6{fill:#604B3B;}
	.st7{fill:#333333;}
	.st8{opacity:0.42;fill:#929292;}
	.st9{fill:#C9C9C9;}
	.st10{fill:#E5E5E5;}
	.st11{fill:#FFFFFF;}
	.st12{fill:#EB553F;}
	.st13{fill:#CE2E25;}
	.st14{clip-path:url(#SVGID_2_);}
</style>
<g transform="translate(1 1)">
	<path d="M21.2,43.6c-0.2,0-0.5-0.2-0.6-0.3l-6.3-8.7c-0.2-0.2-0.2-0.5-0.2-0.6l0.8-3.2c0.1-0.2,0.2-0.4,0.5-0.6
		c0.2-0.1,0.5-0.1,0.7,0l0.2,0.1c0.1,0.1,0.2,0.2,0.2,0.2c2.2,2.8,5,4.3,7.8,4.3c0.2,0,0.6,0.2,0.6,0.4c0.1,0.2,0.2,0.5,0.1,0.8
		l-3.2,7.1C21.8,43.4,21.5,43.7,21.2,43.6C21.3,43.6,21.2,43.6,21.2,43.6z M15.7,34l5.3,7.3l2.1-4.8c-2.5-0.3-5.1-1.7-7.1-3.9
		L15.7,34z"/>
	<path d="M27.5,43.6L27.5,43.6c-0.4,0-0.6-0.2-0.7-0.5L23.6,36c-0.1-0.2-0.1-0.6,0.1-0.8c0.2-0.2,0.4-0.3,0.6-0.3
		c2.9,0,5.7-1.5,7.8-4.3c0.1-0.1,0.2-0.2,0.2-0.2l0.2-0.1c0.2-0.1,0.5-0.2,0.7,0c0.2,0.1,0.4,0.3,0.5,0.6l0.8,3.2
		c0.1,0.2,0,0.5-0.2,0.6l-6.3,8.7C28,43.4,27.7,43.6,27.5,43.6z M25.5,36.4l2.1,4.8L33,34l-0.3-1.4C30.6,34.8,28.1,36.1,25.5,36.4z"
		/>
	<path d="M47.2,47.5H1.5c-0.5,0-0.8-0.3-0.8-0.8v-3.4c0-1.7,0.9-3.2,2.4-3.9c5.2-2.8,9.1-4.2,12.6-4.6h0.1h0.4
		c0.2,0,0.5,0.2,0.6,0.3l4.3,6l2.6-5.8c0.2-0.3,0.4-0.5,0.7-0.5c0.3,0,0.6,0.2,0.7,0.5l2.6,5.8l4.3-6c0.2-0.2,0.4-0.3,0.6-0.3H33
		h0.1c3.5,0.4,7.3,1.8,12.6,4.6l0,0c1.4,0.8,2.4,2.3,2.4,3.9v3.4C48,47.2,47.7,47.5,47.2,47.5z M28.3,46h18.2v-2.6
		c0-1-0.6-2-1.5-2.5c-5-2.6-8.7-3.9-11.9-4.4l-4.9,6.8c-0.2,0.2-0.5,0.3-0.7,0.3c-0.3,0-0.6-0.2-0.6-0.5l-2.4-5.4l-2.4,5.4
		c-0.1,0.2-0.4,0.5-0.6,0.5c-0.3,0-0.6-0.1-0.7-0.3l-4.9-6.8c-3.2,0.4-6.9,1.7-11.9,4.4c-0.9,0.5-1.5,1.4-1.5,2.4V46H28.3z"/>
	<path d="M34.1,17.6c-0.2,0-0.5,0-0.8-0.1c-6.1-1.1-12.2-1.1-18.1,0c-1.3,0.2-2.6-0.2-3.6-0.9c-1-0.9-1.6-2.1-1.6-3.4
		C10.1,7.4,15,2.5,20.9,2.5h7c5.8,0,10.7,4.8,10.7,10.7c0,1.3-0.6,2.5-1.6,3.4C36.2,17.3,35.2,17.6,34.1,17.6z M24.3,15.2
		c3.1,0,6.2,0.3,9.4,0.9c0.8,0.2,1.7-0.1,2.3-0.6s1-1.3,1-2.1c0-5.1-4.1-9.2-9.2-9.2h-7c-5,0-9.1,4.1-9.1,9.2c0,0.9,0.4,1.7,1,2.1
		c0.6,0.5,1.5,0.8,2.3,0.6C18,15.5,21.2,15.2,24.3,15.2z"/>
	<path d="M34.2,17.6c-0.2,0-0.6,0-0.8-0.1l0,0c-6.1-1.1-12.2-1.1-18.1,0c-1.3,0.2-2.4-0.1-3.4-0.8s-1.6-1.9-1.7-3.1
		c0-0.4,0.2-0.8,0.6-0.9l4.2-0.7c6.1-1.1,12.4-1.1,18.6,0l4.2,0.7c0.4,0.1,0.7,0.5,0.6,0.9c-0.1,1.2-0.7,2.4-1.7,3.1
		C36,17.3,35.2,17.6,34.2,17.6z M33.7,16c0.8,0.2,1.6-0.1,2.2-0.6c0.4-0.3,0.8-0.8,0.9-1.3l-3.4-0.6c-6.1-1.1-12.2-1.1-18.1,0
		L12,14.2c0.2,0.5,0.5,0.9,0.9,1.3c0.6,0.5,1.4,0.6,2.2,0.6C21.1,14.9,27.4,14.9,33.7,16z"/>
	<path d="M24.3,36.5c-7.3,0-12.6-7.9-12.6-15v-5.3c0-0.3,0.2-0.6,0.4-0.7c0.2-0.2,0.6-0.2,0.8,0.1c0.6,0.4,1.3,0.6,2.1,0.5
		c6.1-1.1,12.4-1.1,18.6,0c0.7,0.2,1.4,0,2.1-0.5c0.2-0.2,0.6-0.2,0.8-0.1c0.2,0.2,0.4,0.4,0.4,0.7v5.3C37,28.6,31.6,36.5,24.3,36.5
		z M13.3,17.5v4c0,7.7,5.8,13.4,11.1,13.4s11.1-5.8,11.1-13.4v-4c-0.6,0.2-1.3,0.2-2,0.1l0,0c-6.1-1.1-12.2-1.1-18.1,0
		C14.6,17.7,13.9,17.6,13.3,17.5z"/>
</g>
</svg>
