<svg xmlns="http://www.w3.org/2000/svg" viewBox="0 0 56.95 79.33"><defs><style>.cls-1{isolation:isolate;}.cls-2{fill:#46485b;}.cls-3{fill:#61647f;}.cls-4{fill:#dac197;}.cls-5{fill:#ebd5a6;}.cls-6{fill:#efcd35;}.cls-7{fill:#dac8ba;opacity:0.59;}.cls-10,.cls-7{mix-blend-mode:multiply;}.cls-8{fill:#5b4c3e;}.cls-9{fill:#363636;}.cls-10{fill:#909090;opacity:0.42;}.cls-11{fill:#c7c7c7;}.cls-12{fill:#e3e3e3;}.cls-13{fill:#fff;}.cls-14{fill:#cc5642;}.cls-15{fill:#b0322a;}</style></defs><title>Sem título-1</title><g class="cls-1"><g id="Camada_1" data-name="Camada 1"><path class="cls-2" d="M23.74,66.37l-.18-.52c-.44-1.28-.86-2.46-1.24-3.47l-.14-.54a60.35,60.35,0,0,0-4.75-4.31,24.53,24.53,0,0,1-5.52-6l-.43.16L6.81,53.43,3.19,54.72l-.08,0h0V74.67H26.26C25.47,71.73,24.57,68.86,23.74,66.37ZM5.27,54l0,0h0Z"/><path class="cls-3" d="M26.26,74.67H21.62c-1.37-1.38-2.86-2.65-4.32-3.89a24,24,0,0,1-5.52-6,14.76,14.76,0,0,1-1.26-2.55A19,19,0,0,1,16,56.85c-2.05-.14-4.14,0-6.22,0a8.4,8.4,0,0,1,1.7-5.16A9.81,9.81,0,0,1,20,47.78v5.93l1.11,4.14,1.09,4,.14.54c.38,1,.8,2.19,1.24,3.47l.18.52c.43,1.28.87,2.65,1.31,4.09s.78,2.61,1.14,4C26.22,74.51,26.23,74.58,26.26,74.67Z"/><path class="cls-2" d="M30.69,74.67H53.87V54.76h0s0,0-.08,0l-3.62-1.29-4.67-1.72L45,51.55a24.53,24.53,0,0,1-5.52,6,58.49,58.49,0,0,0-4.74,4.31l-.15.54c-.38,1-.79,2.19-1.23,3.47l-.18.52C32.38,68.86,31.48,71.73,30.69,74.67ZM51.63,54h0l0,0Z"/><path class="cls-3" d="M46.44,62.25a14.76,14.76,0,0,1-1.26,2.55,24.17,24.17,0,0,1-5.52,6c-1.47,1.24-3,2.51-4.32,3.89H30.7c.07-.29.16-.59.24-.88.27-1,.55-2,.84-2.92l.15-.48c.43-1.41.87-2.77,1.29-4l.18-.52c.44-1.28.85-2.46,1.24-3.47l.14-.54,1.08-4L37,53.71V47.78a9.84,9.84,0,0,1,8.5,3.93,8.4,8.4,0,0,1,1.7,5.16c-2.08,0-4.18-.16-6.23,0A19,19,0,0,1,46.44,62.25Z"/><path class="cls-4" d="M15.85,38.39a1.54,1.54,0,0,1-1.14-.24A6,6,0,0,1,12.5,34c-.41-2.71.43-5.11,1.87-5.37a.9.9,0,0,1,.4,0,.91.91,0,0,1,.23,0,2.07,2.07,0,0,1,.91.5A6.6,6.6,0,0,1,17.72,33C18.14,35.73,17.29,38.13,15.85,38.39Z"/><path class="cls-4" d="M44.45,34c-.33,2.25-1.43,4-2.62,4.38a1.4,1.4,0,0,1-.73,0c-1.44-.26-2.28-2.66-1.87-5.37a6.83,6.83,0,0,1,1.69-3.79,2.58,2.58,0,0,1,.91-.59,1.51,1.51,0,0,1,.76-.05h0C44.05,28.9,44.85,31.28,44.45,34Z"/><path class="cls-4" d="M37,46.87v6.84l-1.12,4.14H21.09L20,53.71V46.88a12.1,12.1,0,0,0,8.5,3.69A12.07,12.07,0,0,0,37,46.87Z"/><path class="cls-5" d="M42.52,33.71A20.28,20.28,0,0,1,37,48.13a12.08,12.08,0,0,1-8.5,3.71A12.14,12.14,0,0,1,20,48.15a20.31,20.31,0,0,1-5.54-14.44c0-10,6.28-18.12,14-18.12S42.52,23.7,42.52,33.71Z"/><path class="cls-6" d="M48.27,17.79c0,7.25-8.86,13.12-19.79,13.12S8.68,25,8.68,17.79,17.54,4.67,28.48,4.67,48.27,10.54,48.27,17.79Z"/><path class="cls-7" d="M45.84,20.39A9,9,0,0,1,43,26.68,25.28,25.28,0,0,1,28.48,30.9,25.22,25.22,0,0,1,13.9,26.65a8.92,8.92,0,0,1-2.79-6.26c0-6.36,7.77-11.51,17.36-11.51S45.84,14,45.84,20.39Z"/><path class="cls-8" d="M17.68,29.21a6.15,6.15,0,0,1-3.17,2.55,22.2,22.2,0,0,1,.83-4.48A7.46,7.46,0,0,0,17.68,29.21Z"/><path class="cls-8" d="M42.43,31.91a2.46,2.46,0,0,1-1.57-1,28,28,0,0,1-11.69.67,23.5,23.5,0,0,0,9.33-1.94,8.41,8.41,0,0,0,3.1-2.34,22.11,22.11,0,0,1,.67,3.12C42.35,30.89,42.4,31.4,42.43,31.91Z"/><path class="cls-9" d="M42.36,25.55c0,1.71-1.47,3.26-3.86,4.4a24,24,0,0,1-10,2,24,24,0,0,1-10-2c-2.39-1.14-3.86-2.69-3.86-4.4a1,1,0,0,1,0-.17,22.72,22.72,0,0,0,6,2.16l.06,0a37.47,37.47,0,0,0,7.76.79,37.57,37.57,0,0,0,7.77-.79l.06,0a22.65,22.65,0,0,0,6-2.16A.5.5,0,0,1,42.36,25.55Z"/><path class="cls-10" d="M44.33,30.71a19.76,19.76,0,0,1-1.84,1l-.06,0A22.33,22.33,0,0,1,39.24,33a37.66,37.66,0,0,1-10.76,1.48A37.57,37.57,0,0,1,17.71,33a22.8,22.8,0,0,1-3.19-1.22h0a16.92,16.92,0,0,1-1.85-1c.32-1.16.93-2,1.75-2.12a.86.86,0,0,1,.39,0,.85.85,0,0,1,.23,0,7.79,7.79,0,0,1,.22-.83l.32.09A8.87,8.87,0,0,0,18.45,30a24.38,24.38,0,0,0,10,1.95A24.26,24.26,0,0,0,38.5,30a8.76,8.76,0,0,0,2.91-2.09c.11,0,.22-.05.33-.09a7.75,7.75,0,0,1,.21.83,1.26,1.26,0,0,1,.64,0h0C43.43,28.75,44,29.57,44.33,30.71Z"/><path class="cls-11" d="M42.36,22.3v3.25a.5.5,0,0,0,0-.17,22.65,22.65,0,0,1-6,2.16l-.06,0a37.57,37.57,0,0,1-7.77.79,37.47,37.47,0,0,1-7.76-.79l-.06,0a22.72,22.72,0,0,1-6-2.16,1,1,0,0,0,0,.17V22.3c0-3.52,6.23-6.36,13.88-6.36S42.36,18.78,42.36,22.3Z"/><path class="cls-10" d="M42.37,22.24v1.54C39.71,21.53,34.52,20,28.55,20S17.22,21.58,14.6,23.89V22.24c0-3.52,6.23-6.36,13.89-6.36S42.37,18.72,42.37,22.24Z"/><path class="cls-9" d="M33.5,21.47c1.34.08,2,.13,3.34.25l-.3,3.21c-1.29-.12-1.93-.17-3.22-.24C33.39,23.4,33.43,22.76,33.5,21.47Z"/><path class="cls-9" d="M30.21,18.12c1.39,0,2.08.06,3.47.13-.07,1.29-.11,1.93-.18,3.22-1.34-.07-2-.1-3.35-.12C30.18,20.06,30.19,19.41,30.21,18.12Z"/><path class="cls-9" d="M26.8,21.35c1.34,0,2,0,3.35,0,0,1.29,0,1.93-.06,3.22-1.29,0-1.93,0-3.22,0C26.84,23.28,26.83,22.64,26.8,21.35Z"/><path class="cls-9" d="M23.28,18.25c1.38-.07,2.08-.1,3.46-.13,0,1.29,0,1.94.06,3.23-1.33,0-2,0-3.34.12C23.39,20.18,23.35,19.54,23.28,18.25Z"/><path class="cls-9" d="M20.12,21.72c1.33-.12,2-.17,3.34-.25.07,1.29.11,1.93.18,3.22-1.29.07-1.93.12-3.22.24Z"/><path class="cls-12" d="M37,51.55v2.16l-1.12,4.14-1.08,4-.14.54c-.39,1-.8,2.19-1.24,3.47l-.18.52c-.84,2.49-1.73,5.36-2.52,8.3H26.26c-.79-2.94-1.69-5.81-2.52-8.3l-.18-.52c-.44-1.28-.86-2.46-1.24-3.47l-.14-.54-1.09-4L20,53.71V51.55l8.5,4.1Z"/><polygon class="cls-13" points="36.98 51.55 36.98 53.71 36.13 56.88 35.86 57.85 35.47 59.28 30.7 62.4 30.42 61.56 29.2 57.85 28.52 55.77 28.48 55.66 28.48 55.65 36.98 51.55"/><polygon class="cls-13" points="28.48 55.66 27.76 57.85 26.54 61.57 26.26 62.4 21.57 59.59 21.09 57.85 19.98 53.71 19.98 51.55 28.47 55.65 28.48 55.66"/><path class="cls-14" d="M31.93,70.39l-.15.48c-.29,1-.57,1.93-.84,2.92-.08.29-.17.59-.24.88H26.26c0-.09,0-.16-.07-.25q-.54-2-1.14-4l.08-.34L27,61.9l.09,0a3.72,3.72,0,0,0,2.82,0Z"/><path class="cls-15" d="M30.42,61.56a2.6,2.6,0,0,1-.31.25l-.17.08a3.72,3.72,0,0,1-2.82,0l-.09,0a1.75,1.75,0,0,1-.49-.33l1.22-3.72.72-2.19,0,.11.68,2.08Z"/><polygon class="cls-10" points="28.48 55.66 27.74 65.24 21.94 60.96 21.57 59.59 26.26 62.4 26.54 61.56 27.76 57.85 28.48 55.66"/><polygon class="cls-10" points="35.47 59.28 35.05 60.84 29.05 65.24 28.48 55.66 28.52 55.77 29.2 57.85 30.42 61.56 30.7 62.4 35.47 59.28"/></g></g></svg>