<svg id="Camada_1" data-name="Camada 1" xmlns="http://www.w3.org/2000/svg" viewBox="0 0 112.33 79.33"><defs><style>.cls-1{fill:#f3d532;}.cls-2{fill:#ebeae9;}.cls-3{fill:#323948;}.cls-4{fill:#eaad29;}.cls-5{fill:#fff;}.cls-6{fill:#dc4925;}</style></defs><title>Sem título-1</title><path class="cls-1" d="M110.23,55.78c0-.26-.09-3.66,0-11a5.82,5.82,0,0,0-3.71-5.47c-3.11-1.22-6.08-2.55-7.22-3.07L95.48,19.31H98L97.48,17a3.06,3.06,0,0,0-3-2.36H2a.86.86,0,0,0-.86.86V56a.85.85,0,0,0,.86.86H15.8l19.8,0,41,0H96.39c7.46,0,12.34,0,12.89.07h.12a.87.87,0,0,0,.83-1.09Z"/><polygon class="cls-2" points="78.13 20.79 91.73 20.79 94.9 34.92 78.13 34.92 78.13 20.79"/><rect class="cls-2" x="60.37" y="20.79" width="15.1" height="14.13"/><rect class="cls-2" x="42.15" y="20.79" width="15.1" height="14.13"/><rect class="cls-2" x="23.94" y="20.79" width="15.1" height="14.13"/><rect class="cls-2" x="5.72" y="20.79" width="15.1" height="14.13"/><path class="cls-3" d="M105.31,50.74h5.89a0,0,0,0,1,0,0V58a0,0,0,0,1,0,0H100a0,0,0,0,1,0,0V56A5.28,5.28,0,0,1,105.31,50.74Z" transform="translate(211.23 108.75) rotate(180)"/><path class="cls-4" d="M76.58,56.7v.09H96.39v-.1a9.91,9.91,0,1,0-19.81,0Z"/><path class="cls-4" d="M15.8,56.7v.14l19.8,0a.45.45,0,0,0,0-.11,9.91,9.91,0,1,0-19.81,0Z"/><circle class="cls-3" cx="86.48" cy="56.7" r="7.97"/><circle class="cls-5" cx="86.48" cy="56.7" r="4.78"/><circle class="cls-3" cx="86.48" cy="56.7" r="2.33" transform="translate(11.43 127.84) rotate(-76.72)"/><circle class="cls-3" cx="25.7" cy="56.7" r="7.97"/><circle class="cls-5" cx="25.7" cy="56.7" r="4.78"/><circle class="cls-3" cx="25.7" cy="56.7" r="2.33"/><rect class="cls-3" x="1.14" y="36.88" width="96.56" height="2.58"/><rect class="cls-3" x="1.14" y="44.7" width="96.56" height="0.9"/><rect class="cls-6" x="69.04" y="50.34" width="3.34" height="1.43"/><rect class="cls-6" x="37.72" y="50.34" width="3.34" height="1.43"/><rect class="cls-6" x="9.45" y="50.34" width="3.34" height="1.43"/></svg>